<?xml version="1.0" encoding="UTF-8"?>
<svg id="_Слой_1" data-name="Слой 1" xmlns="http://www.w3.org/2000/svg" viewBox="0 0 704.39 521.53">
  <defs>
    <style>
      .cls-1 {
        fill: #e9f1ff;
      }

      .cls-2 {
        fill: #a84dff;
      }

      .cls-3 {
        fill: #0447f4;
      }
    </style>
  </defs>
  <path class="cls-1" d="m46.48,24.55c2.55-1.74,5.56-2.68,8.65-2.69,4.52-.01,15.22.45,25.06.93,12.81.62,25.65-.59,38.12-3.56,4.51-1.08,9.93-2.05,14.45-2.79,7.24-1.18,14.65-.32,21.44,2.46,13.63,5.59,34.66,18.47,41.37,46.04,5.13,21.09,8.25,36.23,10.09,46.07,1.69,9.03,1.13,18.33-1.59,27.1h0c-2.36,7.61-7.6,13.99-14.6,17.79l-22.67,12.3c-15.19,8.24-31.01,15.26-47.32,20.98l-39.85,13.99c-7.16,2.51-14.54,4.37-22.04,5.54h0c-36.62,5.7-66.44-29.13-55.17-64.43h0c3.45-10.82,8.46-21.07,14.85-30.45l3.53-5.18c11.75-17.23,18.19-37.53,18.52-58.39l.2-12.78c.08-5.18,2.67-10,6.95-12.93h0Z"/>
  <g>
    <circle class="cls-3" cx="534.14" cy="519.47" r="2.06"/>
    <circle class="cls-3" cx="550.95" cy="519.47" r="2.06"/>
    <circle class="cls-3" cx="567.77" cy="519.47" r="2.06"/>
    <circle class="cls-3" cx="584.59" cy="519.47" r="2.06"/>
    <circle class="cls-3" cx="601.41" cy="519.47" r="2.06"/>
    <circle class="cls-3" cx="618.23" cy="519.47" r="2.06"/>
    <circle class="cls-3" cx="635.05" cy="519.47" r="2.06"/>
    <circle class="cls-3" cx="500.5" cy="502.46" r="2.06"/>
    <circle class="cls-3" cx="517.32" cy="502.46" r="2.06"/>
    <circle class="cls-3" cx="534.14" cy="502.46" r="2.06"/>
    <circle class="cls-3" cx="550.95" cy="502.46" r="2.06"/>
    <circle class="cls-3" cx="567.77" cy="502.46" r="2.06"/>
    <circle class="cls-3" cx="584.59" cy="502.46" r="2.06"/>
    <circle class="cls-3" cx="601.41" cy="502.46" r="2.06"/>
    <circle class="cls-3" cx="618.23" cy="502.46" r="2.06"/>
    <circle class="cls-3" cx="635.05" cy="502.46" r="2.06"/>
    <circle class="cls-3" cx="651.87" cy="502.46" r="2.06"/>
    <circle class="cls-3" cx="483.68" cy="485.45" r="2.06"/>
    <circle class="cls-3" cx="500.5" cy="485.45" r="2.06"/>
    <circle class="cls-3" cx="517.32" cy="485.45" r="2.06"/>
    <circle class="cls-3" cx="534.14" cy="485.45" r="2.06"/>
    <circle class="cls-3" cx="550.95" cy="485.45" r="2.06"/>
    <circle class="cls-3" cx="567.77" cy="485.45" r="2.06"/>
    <circle class="cls-3" cx="584.59" cy="485.45" r="2.06"/>
    <circle class="cls-3" cx="601.41" cy="485.45" r="2.06"/>
    <circle class="cls-3" cx="618.23" cy="485.45" r="2.06"/>
    <circle class="cls-3" cx="635.05" cy="485.45" r="2.06"/>
    <circle class="cls-3" cx="651.87" cy="485.45" r="2.06"/>
    <circle class="cls-3" cx="668.69" cy="485.45" r="2.06"/>
    <circle class="cls-3" cx="466.86" cy="468.44" r="2.06"/>
    <circle class="cls-3" cx="483.68" cy="468.44" r="2.06"/>
    <circle class="cls-3" cx="500.5" cy="468.44" r="2.06"/>
    <circle class="cls-3" cx="517.32" cy="468.44" r="2.06"/>
    <circle class="cls-3" cx="534.14" cy="468.44" r="2.06"/>
    <circle class="cls-3" cx="550.95" cy="468.44" r="2.06"/>
    <circle class="cls-3" cx="567.77" cy="468.44" r="2.06"/>
    <circle class="cls-3" cx="584.59" cy="468.44" r="2.06"/>
    <circle class="cls-3" cx="601.41" cy="468.44" r="2.06"/>
    <circle class="cls-3" cx="618.23" cy="468.44" r="2.06"/>
    <circle class="cls-3" cx="635.05" cy="468.44" r="2.06"/>
    <circle class="cls-3" cx="651.87" cy="468.44" r="2.06"/>
    <circle class="cls-3" cx="668.69" cy="468.44" r="2.06"/>
    <circle class="cls-3" cx="685.51" cy="468.44" r="2.06"/>
    <circle class="cls-3" cx="466.86" cy="451.43" r="2.06"/>
    <circle class="cls-3" cx="483.68" cy="451.43" r="2.06"/>
    <circle class="cls-3" cx="500.5" cy="451.43" r="2.06"/>
    <circle class="cls-3" cx="517.32" cy="451.43" r="2.06"/>
    <circle class="cls-3" cx="534.14" cy="451.43" r="2.06"/>
    <circle class="cls-3" cx="550.95" cy="451.43" r="2.06"/>
    <circle class="cls-3" cx="567.77" cy="451.43" r="2.06"/>
    <circle class="cls-3" cx="584.59" cy="451.43" r="2.06"/>
    <circle class="cls-3" cx="601.41" cy="451.43" r="2.06"/>
    <circle class="cls-3" cx="618.23" cy="451.43" r="2.06"/>
    <circle class="cls-3" cx="635.05" cy="451.43" r="2.06"/>
    <circle class="cls-3" cx="651.87" cy="451.43" r="2.06"/>
    <circle class="cls-3" cx="668.69" cy="451.43" r="2.06"/>
    <circle class="cls-3" cx="685.51" cy="451.43" r="2.06"/>
    <circle class="cls-3" cx="450.04" cy="434.43" r="2.06"/>
    <circle class="cls-3" cx="466.86" cy="434.43" r="2.06"/>
    <circle class="cls-3" cx="483.68" cy="434.43" r="2.06"/>
    <circle class="cls-3" cx="500.5" cy="434.43" r="2.06"/>
    <circle class="cls-3" cx="517.32" cy="434.43" r="2.06"/>
    <circle class="cls-3" cx="534.14" cy="434.43" r="2.06"/>
    <circle class="cls-3" cx="550.95" cy="434.43" r="2.06"/>
    <circle class="cls-3" cx="567.77" cy="434.43" r="2.06"/>
    <circle class="cls-3" cx="584.59" cy="434.43" r="2.06"/>
    <circle class="cls-3" cx="601.41" cy="434.43" r="2.06"/>
    <circle class="cls-3" cx="618.23" cy="434.43" r="2.06"/>
    <circle class="cls-3" cx="635.05" cy="434.43" r="2.06"/>
    <circle class="cls-3" cx="651.87" cy="434.43" r="2.06"/>
    <circle class="cls-3" cx="668.69" cy="434.43" r="2.06"/>
    <circle class="cls-3" cx="685.51" cy="434.43" r="2.06"/>
    <circle class="cls-3" cx="702.32" cy="434.43" r="2.06"/>
    <circle class="cls-3" cx="450.04" cy="417.42" r="2.06"/>
    <circle class="cls-3" cx="466.86" cy="417.42" r="2.06"/>
    <circle class="cls-3" cx="483.68" cy="417.42" r="2.06"/>
    <circle class="cls-3" cx="500.5" cy="417.42" r="2.06"/>
    <circle class="cls-3" cx="517.32" cy="417.42" r="2.06"/>
    <circle class="cls-3" cx="534.14" cy="417.42" r="2.06"/>
    <circle class="cls-3" cx="550.95" cy="417.42" r="2.06"/>
    <circle class="cls-3" cx="567.77" cy="417.42" r="2.06"/>
    <circle class="cls-3" cx="584.59" cy="417.42" r="2.06"/>
    <circle class="cls-3" cx="601.41" cy="417.42" r="2.06"/>
    <circle class="cls-3" cx="618.23" cy="417.42" r="2.06"/>
    <circle class="cls-3" cx="635.05" cy="417.42" r="2.06"/>
    <circle class="cls-3" cx="651.87" cy="417.42" r="2.06"/>
    <circle class="cls-3" cx="668.69" cy="417.42" r="2.06"/>
    <circle class="cls-3" cx="685.51" cy="417.42" r="2.06"/>
    <circle class="cls-3" cx="702.32" cy="417.42" r="2.06"/>
    <circle class="cls-3" cx="450.04" cy="400.41" r="2.06"/>
    <circle class="cls-3" cx="466.86" cy="400.41" r="2.06"/>
    <circle class="cls-3" cx="483.68" cy="400.41" r="2.06"/>
    <circle class="cls-3" cx="500.5" cy="400.41" r="2.06"/>
    <circle class="cls-3" cx="517.32" cy="400.41" r="2.06"/>
    <circle class="cls-3" cx="534.14" cy="400.41" r="2.06"/>
    <circle class="cls-3" cx="550.95" cy="400.41" r="2.06"/>
    <circle class="cls-3" cx="567.77" cy="400.41" r="2.06"/>
    <circle class="cls-3" cx="584.59" cy="400.41" r="2.06"/>
    <circle class="cls-3" cx="601.41" cy="400.41" r="2.06"/>
    <circle class="cls-3" cx="618.23" cy="400.41" r="2.06"/>
    <circle class="cls-3" cx="635.05" cy="400.41" r="2.06"/>
    <circle class="cls-3" cx="651.87" cy="400.41" r="2.06"/>
    <circle class="cls-3" cx="668.69" cy="400.41" r="2.06"/>
    <circle class="cls-3" cx="685.51" cy="400.41" r="2.06"/>
    <circle class="cls-3" cx="702.32" cy="400.41" r="2.06"/>
    <circle class="cls-3" cx="450.04" cy="383.4" r="2.06"/>
    <circle class="cls-3" cx="466.86" cy="383.4" r="2.06"/>
    <circle class="cls-3" cx="483.68" cy="383.4" r="2.06"/>
    <circle class="cls-3" cx="500.5" cy="383.4" r="2.06"/>
    <circle class="cls-3" cx="517.32" cy="383.4" r="2.06"/>
    <circle class="cls-3" cx="534.14" cy="383.4" r="2.06"/>
    <circle class="cls-3" cx="550.95" cy="383.4" r="2.06"/>
    <circle class="cls-3" cx="567.77" cy="383.4" r="2.06"/>
    <circle class="cls-3" cx="584.59" cy="383.4" r="2.06"/>
    <circle class="cls-3" cx="601.41" cy="383.4" r="2.06"/>
    <circle class="cls-3" cx="618.23" cy="383.4" r="2.06"/>
    <circle class="cls-3" cx="635.05" cy="383.4" r="2.06"/>
    <circle class="cls-3" cx="651.87" cy="383.4" r="2.06"/>
    <circle class="cls-3" cx="668.69" cy="383.4" r="2.06"/>
    <circle class="cls-3" cx="685.51" cy="383.4" r="2.06"/>
    <circle class="cls-3" cx="702.32" cy="383.4" r="2.06"/>
    <circle class="cls-3" cx="450.04" cy="366.39" r="2.06"/>
    <circle class="cls-3" cx="466.86" cy="366.39" r="2.06"/>
    <circle class="cls-3" cx="483.68" cy="366.39" r="2.06"/>
    <circle class="cls-3" cx="500.5" cy="366.39" r="2.06"/>
    <circle class="cls-3" cx="517.32" cy="366.39" r="2.06"/>
    <circle class="cls-3" cx="534.14" cy="366.39" r="2.06"/>
    <circle class="cls-3" cx="550.95" cy="366.39" r="2.06"/>
    <circle class="cls-3" cx="567.77" cy="366.39" r="2.06"/>
    <circle class="cls-3" cx="584.59" cy="366.39" r="2.06"/>
    <circle class="cls-3" cx="601.41" cy="366.39" r="2.06"/>
    <circle class="cls-3" cx="618.23" cy="366.39" r="2.06"/>
    <circle class="cls-3" cx="635.05" cy="366.39" r="2.06"/>
    <circle class="cls-3" cx="651.87" cy="366.39" r="2.06"/>
    <circle class="cls-3" cx="668.69" cy="366.39" r="2.06"/>
    <circle class="cls-3" cx="685.51" cy="366.39" r="2.06"/>
    <circle class="cls-3" cx="702.32" cy="366.39" r="2.06"/>
    <circle class="cls-3" cx="450.04" cy="349.39" r="2.06"/>
    <circle class="cls-3" cx="466.86" cy="349.39" r="2.06"/>
    <circle class="cls-3" cx="483.68" cy="349.39" r="2.06"/>
    <circle class="cls-3" cx="500.5" cy="349.39" r="2.06"/>
    <circle class="cls-3" cx="517.32" cy="349.39" r="2.06"/>
    <circle class="cls-3" cx="534.14" cy="349.39" r="2.06"/>
    <circle class="cls-3" cx="550.95" cy="349.39" r="2.06"/>
    <circle class="cls-3" cx="567.77" cy="349.39" r="2.06"/>
    <circle class="cls-3" cx="584.59" cy="349.39" r="2.06"/>
    <circle class="cls-3" cx="601.41" cy="349.39" r="2.06"/>
    <circle class="cls-3" cx="618.23" cy="349.39" r="2.06"/>
    <circle class="cls-3" cx="635.05" cy="349.39" r="2.06"/>
    <circle class="cls-3" cx="651.87" cy="349.39" r="2.06"/>
    <circle class="cls-3" cx="668.69" cy="349.39" r="2.06"/>
    <circle class="cls-3" cx="685.51" cy="349.39" r="2.06"/>
    <circle class="cls-3" cx="702.32" cy="349.39" r="2.06"/>
    <circle class="cls-3" cx="466.86" cy="332.38" r="2.06"/>
    <circle class="cls-3" cx="483.68" cy="332.38" r="2.06"/>
    <circle class="cls-3" cx="500.5" cy="332.38" r="2.06"/>
    <circle class="cls-3" cx="517.32" cy="332.38" r="2.06"/>
    <circle class="cls-3" cx="534.14" cy="332.38" r="2.06"/>
    <circle class="cls-3" cx="550.95" cy="332.38" r="2.06"/>
    <circle class="cls-3" cx="567.77" cy="332.38" r="2.06"/>
    <circle class="cls-3" cx="584.59" cy="332.38" r="2.06"/>
    <circle class="cls-3" cx="601.41" cy="332.38" r="2.06"/>
    <circle class="cls-3" cx="618.23" cy="332.38" r="2.06"/>
    <circle class="cls-3" cx="635.05" cy="332.38" r="2.06"/>
    <circle class="cls-3" cx="651.87" cy="332.38" r="2.06"/>
    <circle class="cls-3" cx="668.69" cy="332.38" r="2.06"/>
    <circle class="cls-3" cx="685.51" cy="332.38" r="2.06"/>
    <circle class="cls-3" cx="466.86" cy="315.37" r="2.06"/>
    <circle class="cls-3" cx="483.68" cy="315.37" r="2.06"/>
    <circle class="cls-3" cx="500.5" cy="315.37" r="2.06"/>
    <circle class="cls-3" cx="517.32" cy="315.37" r="2.06"/>
    <circle class="cls-3" cx="534.14" cy="315.37" r="2.06"/>
    <circle class="cls-3" cx="550.95" cy="315.37" r="2.06"/>
    <circle class="cls-3" cx="567.77" cy="315.37" r="2.06"/>
    <circle class="cls-3" cx="584.59" cy="315.37" r="2.06"/>
    <circle class="cls-3" cx="601.41" cy="315.37" r="2.06"/>
    <circle class="cls-3" cx="618.23" cy="315.37" r="2.06"/>
    <circle class="cls-3" cx="635.05" cy="315.37" r="2.06"/>
    <circle class="cls-3" cx="651.87" cy="315.37" r="2.06"/>
    <circle class="cls-3" cx="668.69" cy="315.37" r="2.06"/>
    <circle class="cls-3" cx="685.51" cy="315.37" r="2.06"/>
    <circle class="cls-3" cx="483.68" cy="298.36" r="2.06"/>
    <circle class="cls-3" cx="500.5" cy="298.36" r="2.06"/>
    <circle class="cls-3" cx="517.32" cy="298.36" r="2.06"/>
    <circle class="cls-3" cx="534.14" cy="298.36" r="2.06"/>
    <circle class="cls-3" cx="550.95" cy="298.36" r="2.06"/>
    <circle class="cls-3" cx="567.77" cy="298.36" r="2.06"/>
    <circle class="cls-3" cx="584.59" cy="298.36" r="2.06"/>
    <circle class="cls-3" cx="601.41" cy="298.36" r="2.06"/>
    <circle class="cls-3" cx="618.23" cy="298.36" r="2.06"/>
    <circle class="cls-3" cx="635.05" cy="298.36" r="2.06"/>
    <circle class="cls-3" cx="651.87" cy="298.36" r="2.06"/>
    <circle class="cls-3" cx="668.69" cy="298.36" r="2.06"/>
    <circle class="cls-3" cx="500.5" cy="281.36" r="2.06"/>
    <circle class="cls-3" cx="517.32" cy="281.36" r="2.06"/>
    <circle class="cls-3" cx="534.14" cy="281.36" r="2.06"/>
    <circle class="cls-3" cx="550.95" cy="281.36" r="2.06"/>
    <circle class="cls-3" cx="567.77" cy="281.36" r="2.06"/>
    <circle class="cls-3" cx="584.59" cy="281.36" r="2.06"/>
    <circle class="cls-3" cx="601.41" cy="281.36" r="2.06"/>
    <circle class="cls-3" cx="618.23" cy="281.36" r="2.06"/>
    <circle class="cls-3" cx="635.05" cy="281.36" r="2.06"/>
    <circle class="cls-3" cx="651.87" cy="281.36" r="2.06"/>
    <circle class="cls-3" cx="534.14" cy="264.35" r="2.06"/>
    <circle class="cls-3" cx="550.95" cy="264.35" r="2.06"/>
    <circle class="cls-3" cx="567.77" cy="264.35" r="2.06"/>
    <circle class="cls-3" cx="584.59" cy="264.35" r="2.06"/>
    <circle class="cls-3" cx="601.41" cy="264.35" r="2.06"/>
    <circle class="cls-3" cx="618.23" cy="264.35" r="2.06"/>
    <circle class="cls-3" cx="635.05" cy="264.35" r="2.06"/>
  </g>
  <g>
    <circle class="cls-2" cx="181.49" cy="172.14" r="2.06"/>
    <circle class="cls-2" cx="198.31" cy="172.14" r="2.06"/>
    <circle class="cls-2" cx="215.13" cy="172.14" r="2.06"/>
    <circle class="cls-2" cx="231.95" cy="172.14" r="2.06"/>
    <circle class="cls-2" cx="248.77" cy="172.14" r="2.06"/>
    <circle class="cls-2" cx="164.67" cy="155.13" r="2.06"/>
    <circle class="cls-2" cx="181.49" cy="155.13" r="2.06"/>
    <circle class="cls-2" cx="198.31" cy="155.13" r="2.06"/>
    <circle class="cls-2" cx="215.13" cy="155.13" r="2.06"/>
    <circle class="cls-2" cx="231.95" cy="155.13" r="2.06"/>
    <circle class="cls-2" cx="248.77" cy="155.13" r="2.06"/>
    <circle class="cls-2" cx="265.58" cy="155.13" r="2.06"/>
    <circle class="cls-2" cx="147.85" cy="138.13" r="2.06"/>
    <circle class="cls-2" cx="164.67" cy="138.13" r="2.06"/>
    <circle class="cls-2" cx="181.49" cy="138.13" r="2.06"/>
    <circle class="cls-2" cx="198.31" cy="138.13" r="2.06"/>
    <circle class="cls-2" cx="215.13" cy="138.13" r="2.06"/>
    <circle class="cls-2" cx="231.95" cy="138.13" r="2.06"/>
    <circle class="cls-2" cx="248.77" cy="138.13" r="2.06"/>
    <circle class="cls-2" cx="265.58" cy="138.13" r="2.06"/>
    <circle class="cls-2" cx="282.4" cy="138.13" r="2.06"/>
    <circle class="cls-2" cx="131.03" cy="121.12" r="2.06"/>
    <circle class="cls-2" cx="147.85" cy="121.12" r="2.06"/>
    <circle class="cls-2" cx="164.67" cy="121.12" r="2.06"/>
    <circle class="cls-2" cx="181.49" cy="121.12" r="2.06"/>
    <circle class="cls-2" cx="198.31" cy="121.12" r="2.06"/>
    <circle class="cls-2" cx="215.13" cy="121.12" r="2.06"/>
    <circle class="cls-2" cx="231.95" cy="121.12" r="2.06"/>
    <circle class="cls-2" cx="248.77" cy="121.12" r="2.06"/>
    <circle class="cls-2" cx="265.58" cy="121.12" r="2.06"/>
    <circle class="cls-2" cx="282.4" cy="121.12" r="2.06"/>
    <circle class="cls-2" cx="299.22" cy="121.12" r="2.06"/>
    <circle class="cls-2" cx="131.03" cy="104.11" r="2.06"/>
    <circle class="cls-2" cx="147.85" cy="104.11" r="2.06"/>
    <circle class="cls-2" cx="164.67" cy="104.11" r="2.06"/>
    <circle class="cls-2" cx="181.49" cy="104.11" r="2.06"/>
    <circle class="cls-2" cx="198.31" cy="104.11" r="2.06"/>
    <circle class="cls-2" cx="215.13" cy="104.11" r="2.06"/>
    <circle class="cls-2" cx="231.95" cy="104.11" r="2.06"/>
    <circle class="cls-2" cx="248.77" cy="104.11" r="2.06"/>
    <circle class="cls-2" cx="265.58" cy="104.11" r="2.06"/>
    <circle class="cls-2" cx="282.4" cy="104.11" r="2.06"/>
    <circle class="cls-2" cx="299.22" cy="104.11" r="2.06"/>
    <circle class="cls-2" cx="131.03" cy="87.1" r="2.06"/>
    <circle class="cls-2" cx="147.85" cy="87.1" r="2.06"/>
    <circle class="cls-2" cx="164.67" cy="87.1" r="2.06"/>
    <circle class="cls-2" cx="181.49" cy="87.1" r="2.06"/>
    <circle class="cls-2" cx="198.31" cy="87.1" r="2.06"/>
    <circle class="cls-2" cx="215.13" cy="87.1" r="2.06"/>
    <circle class="cls-2" cx="231.95" cy="87.1" r="2.06"/>
    <circle class="cls-2" cx="248.77" cy="87.1" r="2.06"/>
    <circle class="cls-2" cx="265.58" cy="87.1" r="2.06"/>
    <circle class="cls-2" cx="282.4" cy="87.1" r="2.06"/>
    <circle class="cls-2" cx="299.22" cy="87.1" r="2.06"/>
    <circle class="cls-2" cx="131.03" cy="70.1" r="2.06"/>
    <circle class="cls-2" cx="147.85" cy="70.1" r="2.06"/>
    <circle class="cls-2" cx="164.67" cy="70.1" r="2.06"/>
    <circle class="cls-2" cx="181.49" cy="70.1" r="2.06"/>
    <circle class="cls-2" cx="198.31" cy="70.1" r="2.06"/>
    <circle class="cls-2" cx="215.13" cy="70.1" r="2.06"/>
    <circle class="cls-2" cx="231.95" cy="70.1" r="2.06"/>
    <circle class="cls-2" cx="248.77" cy="70.1" r="2.06"/>
    <circle class="cls-2" cx="265.58" cy="70.1" r="2.06"/>
    <circle class="cls-2" cx="282.4" cy="70.1" r="2.06"/>
    <circle class="cls-2" cx="299.22" cy="70.1" r="2.06"/>
    <circle class="cls-2" cx="131.03" cy="53.09" r="2.06"/>
    <circle class="cls-2" cx="147.85" cy="53.09" r="2.06"/>
    <circle class="cls-2" cx="164.67" cy="53.09" r="2.06"/>
    <circle class="cls-2" cx="181.49" cy="53.09" r="2.06"/>
    <circle class="cls-2" cx="198.31" cy="53.09" r="2.06"/>
    <circle class="cls-2" cx="215.13" cy="53.09" r="2.06"/>
    <circle class="cls-2" cx="231.95" cy="53.09" r="2.06"/>
    <circle class="cls-2" cx="248.77" cy="53.09" r="2.06"/>
    <circle class="cls-2" cx="265.58" cy="53.09" r="2.06"/>
    <circle class="cls-2" cx="282.4" cy="53.09" r="2.06"/>
    <circle class="cls-2" cx="299.22" cy="53.09" r="2.06"/>
    <circle class="cls-2" cx="147.85" cy="36.08" r="2.06"/>
    <circle class="cls-2" cx="164.67" cy="36.08" r="2.06"/>
    <circle class="cls-2" cx="181.49" cy="36.08" r="2.06"/>
    <circle class="cls-2" cx="198.31" cy="36.08" r="2.06"/>
    <circle class="cls-2" cx="215.13" cy="36.08" r="2.06"/>
    <circle class="cls-2" cx="231.95" cy="36.08" r="2.06"/>
    <circle class="cls-2" cx="248.77" cy="36.08" r="2.06"/>
    <circle class="cls-2" cx="265.58" cy="36.08" r="2.06"/>
    <circle class="cls-2" cx="282.4" cy="36.08" r="2.06"/>
    <circle class="cls-2" cx="164.67" cy="19.07" r="2.06"/>
    <circle class="cls-2" cx="181.49" cy="19.07" r="2.06"/>
    <circle class="cls-2" cx="198.31" cy="19.07" r="2.06"/>
    <circle class="cls-2" cx="215.13" cy="19.07" r="2.06"/>
    <circle class="cls-2" cx="231.95" cy="19.07" r="2.06"/>
    <circle class="cls-2" cx="248.77" cy="19.07" r="2.06"/>
    <circle class="cls-2" cx="265.58" cy="19.07" r="2.06"/>
    <circle class="cls-2" cx="181.49" cy="2.06" r="2.06"/>
    <circle class="cls-2" cx="198.31" cy="2.06" r="2.06"/>
    <circle class="cls-2" cx="215.13" cy="2.06" r="2.06"/>
    <circle class="cls-2" cx="231.95" cy="2.06" r="2.06"/>
    <circle class="cls-2" cx="248.77" cy="2.06" r="2.06"/>
  </g>
</svg>