<?xml version="1.0" encoding="utf-8"?>
<!-- Generator: Adobe Illustrator 27.1.1, SVG Export Plug-In . SVG Version: 6.00 Build 0)  -->
<svg version="1.1" id="Слой_1" xmlns="http://www.w3.org/2000/svg" xmlns:xlink="http://www.w3.org/1999/xlink" x="0px" y="0px"
	 viewBox="0 0 360 420" style="enable-background:new 0 0 360 420;" xml:space="preserve">
<style type="text/css">
	.st0{fill:#E9F1FF;}
	.st1{fill:none;stroke:#0447F4;stroke-width:8;stroke-miterlimit:10;}
	.st2{fill:none;stroke:#AEC7FF;stroke-width:8;stroke-miterlimit:10;}
</style>
<g>
	<path class="st0" d="M70,40c0-5.5,4.5-10,10-10h170c22.1,0,40,17.9,40,40v230c0,5.5-4.5,10-10,10H150c-44.2,0-80-35.8-80-80V40z"/>
</g>
<path class="st1" d="M180.8,64.3c-20.6,0-37.2,16.6-37.2,37.2s16.6,37.2,37.2,37.2c20.5,0,37.2-16.7,37.2-37.2"/>
<path class="st2" d="M226,101.5c0,25-20.2,45.2-45.2,45.2c-25,0-45.2-20.2-45.2-45.2s20.2-45.2,45.2-45.2"/>
</svg>
