<?xml version="1.0" encoding="utf-8"?>
<!-- Generator: Adobe Illustrator 27.1.1, SVG Export Plug-In . SVG Version: 6.00 Build 0)  -->
<svg version="1.1" id="Слой_1" xmlns="http://www.w3.org/2000/svg" xmlns:xlink="http://www.w3.org/1999/xlink" x="0px" y="0px"
	 viewBox="0 0 371 220" style="enable-background:new 0 0 371 220;" xml:space="preserve">
<style type="text/css">
	.st0{fill:#FFFFFF;}
	.st1{fill:#EDF0FC;}
	.st2{fill:#0447F4;}
</style>
<path shape-rendering="crispEdges" class="st0" d="M60,70c0-27.6,22.4-50,50-50h191c5.5,0,10,4.5,10,10v40c0,27.6-22.4,50-50,50H70
	c-5.5,0-10-4.5-10-10V70z"/>
<circle class="st1" cx="119" cy="70" r="33"/>
<path class="st2" d="M128.8,58.4c-0.4,5.4-4.5,9.9-9,9.9c-4.5,0-8.6-4.4-9-9.9c-0.4-5.6,3.6-9.9,9-9.9
	C125.2,48.5,129.2,52.8,128.8,58.4z"/>
<path class="st2" d="M119.8,71.4c-7.9,0-15.9,4.7-17.4,13.5c-0.2,1.1,0.4,2.1,1.4,2.1h32c1,0,1.6-1,1.4-2.1
	C135.7,76.1,127.6,71.4,119.8,71.4z"/>
<g>
	<g>
		<path class="st2" d="M103,74.4c-0.6,0-1.1-0.5-1.1-1.1v-3.1h-3.1c-0.6,0-1.1-0.5-1.1-1.1s0.5-1.1,1.1-1.1h3.1v-3.1
			c0-0.6,0.5-1.1,1.1-1.1s1.1,0.5,1.1,1.1V68h3.1c0.6,0,1.1,0.5,1.1,1.1s-0.5,1.1-1.1,1.1h-3.1v3.1C104.1,73.9,103.6,74.4,103,74.4z
			"/>
	</g>
</g>
</svg>
