<?xml version="1.0" encoding="utf-8"?>
<!-- Generator: Adobe Illustrator 27.1.1, SVG Export Plug-In . SVG Version: 6.00 Build 0)  -->
<svg version="1.1" id="Слой_1" xmlns="http://www.w3.org/2000/svg" xmlns:xlink="http://www.w3.org/1999/xlink" x="0px" y="0px"
	 viewBox="0 0 1920 913" style="enable-background:new 0 0 1920 913;" xml:space="preserve">
<style type="text/css">
	.st0{clip-path:url(#SVGID_00000150094465744139933070000004030486833440093332_);}
	.st1{fill:#E9F1FF;}
</style>
<g>
	<defs>
		<rect id="SVGID_1_" width="1920" height="913"/>
	</defs>
	<clipPath id="SVGID_00000150791342815918782880000007435433473524064393_">
		<use xlink:href="#SVGID_1_"  style="overflow:visible;"/>
	</clipPath>
	<g style="clip-path:url(#SVGID_00000150791342815918782880000007435433473524064393_);">
		<path class="st1" d="M1920,913c0,0,0-722.5,0-816c-46.7-9.3-102.5,12.6-151.1,3.5c-48.1-9.1-90.4-50.7-140.5-58
			c-48.6-7.1-103.4,20.4-153.8,15c-49-5.2-95.1-43.5-145.5-47c-49.3-3.4-101.4,27.9-151.9,26.2C1127.8,34.9,1078.5,0,1028,0
			c-50.5,0-99.7,34.9-149.2,36.6C828.3,38.3,776.2,7,726.9,10.4c-50.4,3.5-96.5,41.8-145.5,47c-50.3,5.4-105.1-22.1-153.8-15
			c-50.1,7.3-92.4,49-140.5,58c-49.8,9.4-107.2-13.5-154.7-2.3C83.4,109.6,46.1,154.2,0,168c0,33.1,0,745,0,745H1920z"/>
	</g>
</g>
</svg>
