<?xml version="1.0" encoding="utf-8"?>
<!-- Generator: Adobe Illustrator 27.1.1, SVG Export Plug-In . SVG Version: 6.00 Build 0)  -->
<svg version="1.1" id="Слой_1" xmlns="http://www.w3.org/2000/svg" xmlns:xlink="http://www.w3.org/1999/xlink" x="0px" y="0px"
	 viewBox="0 0 40 40" style="enable-background:new 0 0 40 40;" xml:space="preserve">
<style type="text/css">
	.st0{fill-rule:evenodd;clip-rule:evenodd;fill:#00AAFF;}
</style>
<path class="st0" d="M20,3.64C10.96,3.64,3.64,10.96,3.64,20S10.96,36.36,20,36.36S36.36,29.04,36.36,20S29.04,3.64,20,3.64z M0,20
	C0,8.95,8.95,0,20,0s20,8.95,20,20c0,11.05-8.95,20-20,20S0,31.05,0,20z"/>
<path class="st0" d="M19.7,9.48c0.92,0,1.67,0.75,1.67,1.67v8.97l5.75,2.87c0.82,0.41,1.16,1.41,0.75,2.24
	c-0.41,0.82-1.41,1.16-2.24,0.75l-6.67-3.33c-0.56-0.28-0.92-0.86-0.92-1.49v-10C18.03,10.23,18.78,9.48,19.7,9.48z"/>
</svg>
