<?xml version="1.0" encoding="utf-8"?>
<!-- Generator: Adobe Illustrator 27.1.1, SVG Export Plug-In . SVG Version: 6.00 Build 0)  -->
<svg version="1.1" id="Слой_1" xmlns="http://www.w3.org/2000/svg" xmlns:xlink="http://www.w3.org/1999/xlink" x="0px" y="0px"
	 viewBox="0 0 40 40" style="enable-background:new 0 0 40 40;" xml:space="preserve">
<style type="text/css">
	.st0{fill:#8C43FF;}
</style>
<g>
	<g>
		<path class="st0" d="M37.56,40H2.44c-1.31,0-2.38-1.07-2.38-2.38V2.5c0-1.31,1.07-2.38,2.38-2.38h35.12
			c1.31,0,2.38,1.07,2.38,2.38v35.12C39.94,38.93,38.88,40,37.56,40z M2.97,37.09h34.06V3.03H2.97V37.09z"/>
	</g>
</g>
<g>
	<g>
		<rect x="1.51" y="8.66" class="st0" width="36.97" height="2.91"/>
	</g>
</g>
<g>
	<g>
		<path class="st0" d="M14.18,30.66c-0.29,0-0.57-0.13-0.76-0.37l-4.51-5.67c-0.29-0.37-0.28-0.89,0.02-1.24l4.9-5.67
			c0.35-0.41,0.96-0.45,1.37-0.1c0.41,0.35,0.45,0.96,0.1,1.37l-4.37,5.07l4.01,5.04c0.33,0.42,0.26,1.03-0.15,1.36
			C14.6,30.59,14.39,30.66,14.18,30.66z"/>
	</g>
</g>
<g>
	<g>
		<path class="st0" d="M24.33,30.66c-0.21,0-0.42-0.07-0.6-0.21c-0.42-0.33-0.49-0.94-0.16-1.36l4-5.04l-4.37-5.07
			c-0.35-0.41-0.3-1.02,0.1-1.37c0.41-0.35,1.02-0.3,1.37,0.1l4.89,5.67c0.3,0.35,0.31,0.87,0.02,1.24l-4.5,5.67
			C24.9,30.53,24.62,30.66,24.33,30.66z"/>
	</g>
</g>
<g>
	<g>
		<path class="st0" d="M17.01,30.66c-0.12,0-0.24-0.02-0.35-0.07c-0.5-0.19-0.75-0.76-0.55-1.26L20.49,18
			c0.19-0.5,0.76-0.75,1.26-0.55c0.5,0.19,0.75,0.76,0.55,1.26l-4.39,11.34C17.76,30.42,17.39,30.66,17.01,30.66z"/>
	</g>
</g>
<g>
	<g>
		<path class="st0" d="M6.55,7.68c-0.98,0-1.78-0.8-1.78-1.78s0.8-1.78,1.78-1.78c0.98,0,1.78,0.8,1.78,1.78S7.53,7.68,6.55,7.68z
			 M6.55,5.17c-0.4,0-0.73,0.33-0.73,0.73c0,0.4,0.33,0.73,0.73,0.73c0.4,0,0.73-0.33,0.73-0.73C7.28,5.5,6.95,5.17,6.55,5.17z"/>
	</g>
</g>
<g>
	<g>
		<path class="st0" d="M11.12,7.68c-0.98,0-1.78-0.8-1.78-1.78s0.8-1.78,1.78-1.78c0.98,0,1.78,0.8,1.78,1.78S12.1,7.68,11.12,7.68z
			 M11.12,5.17c-0.4,0-0.73,0.33-0.73,0.73c0,0.4,0.33,0.73,0.73,0.73c0.4,0,0.73-0.33,0.73-0.73C11.84,5.5,11.52,5.17,11.12,5.17z"
			/>
	</g>
</g>
<g>
	<g>
		<path class="st0" d="M15.67,7.68c-0.98,0-1.78-0.8-1.78-1.78s0.8-1.78,1.78-1.78s1.78,0.8,1.78,1.78S16.65,7.68,15.67,7.68z
			 M15.67,5.17c-0.4,0-0.73,0.33-0.73,0.73c0,0.4,0.33,0.73,0.73,0.73S16.4,6.3,16.4,5.9C16.4,5.5,16.07,5.17,15.67,5.17z"/>
	</g>
</g>
</svg>
