<?xml version="1.0" encoding="utf-8"?>
<!-- Generator: Adobe Illustrator 27.1.1, SVG Export Plug-In . SVG Version: 6.00 Build 0)  -->
<svg version="1.1" id="Слой_1" xmlns="http://www.w3.org/2000/svg" xmlns:xlink="http://www.w3.org/1999/xlink" x="0px" y="0px"
	 viewBox="0 0 45 40" style="enable-background:new 0 0 45 40;" xml:space="preserve">
<style type="text/css">
	.st0{fill:#2E6FFF;}
</style>
<g>
	<g>
		<path class="st0" d="M27.86,40H17.13c-1.13,0-2.05-0.92-2.05-2.04c0-0.1,0.01-0.2,0.02-0.3l0.86-5.78l-2.59-5.91
			c-0.11-0.25-0.17-0.53-0.17-0.81c0-0.37,0.1-0.73,0.28-1.04l7.26-12.08c0.38-0.62,1.04-1,1.76-1c0.73,0,1.39,0.37,1.76,1
			l2.82,4.71c0.35,0.58,0.16,1.34-0.42,1.69c-0.58,0.35-1.34,0.16-1.69-0.42l-2.48-4.14l-6.8,11.31l2.55,5.83
			c0.12,0.29,0.17,0.56,0.17,0.81c0,0.12-0.01,0.24-0.03,0.35l-0.8,5.37h9.8l-0.81-5.4c-0.01-0.11-0.02-0.21-0.02-0.3
			c0-0.28,0.06-0.57,0.17-0.81l2.56-5.84l-1.79-2.98c-0.35-0.58-0.16-1.34,0.42-1.69c0.58-0.35,1.34-0.16,1.69,0.42l1.9,3.17
			c0.19,0.32,0.29,0.68,0.29,1.05c0,0.28-0.06,0.55-0.17,0.81l-2.6,5.93l0.87,5.75c0.02,0.1,0.02,0.2,0.02,0.31
			C29.92,39.08,29,40,27.86,40z M15.62,24.97L15.62,24.97C15.62,24.97,15.62,24.97,15.62,24.97z"/>
	</g>
</g>
<g>
	<g>
		<path class="st0" d="M28.65,33.06H16.36c-0.68,0-1.23-0.55-1.23-1.23s0.55-1.23,1.23-1.23h12.29c0.68,0,1.23,0.55,1.23,1.23
			S29.33,33.06,28.65,33.06z"/>
	</g>
</g>
<g>
	<g>
		<path class="st0" d="M22.5,29.11c-2.4,0-4.35-1.94-4.35-4.32c0-2.38,1.95-4.32,4.35-4.32s4.35,1.94,4.35,4.32
			C26.86,27.17,24.91,29.11,22.5,29.11z M22.5,22.93c-1.04,0-1.9,0.84-1.9,1.86c0,1.03,0.85,1.86,1.9,1.86s1.9-0.84,1.9-1.86
			C24.4,23.76,23.55,22.93,22.5,22.93z"/>
	</g>
</g>
<g>
	<g>
		<path class="st0" d="M22.5,19.4c-0.68,0-1.23-0.55-1.23-1.23v-5.91c0-0.68,0.55-1.23,1.23-1.23c0.68,0,1.23,0.55,1.23,1.23v5.91
			C23.73,18.85,23.18,19.4,22.5,19.4z"/>
	</g>
</g>
<g>
	<g>
		<path class="st0" d="M22.5,9.32c-2.57,0-4.66-2.07-4.66-4.62c0-2.55,2.09-4.62,4.66-4.62s4.66,2.07,4.66,4.62
			C27.16,7.24,25.07,9.32,22.5,9.32z M22.5,2.54c-1.21,0-2.2,0.97-2.2,2.16c0,1.19,0.99,2.16,2.2,2.16s2.2-0.97,2.2-2.16
			C24.7,3.5,23.72,2.54,22.5,2.54z"/>
	</g>
</g>
<g>
	<g>
		<path class="st0" d="M19.08,5.93H5.31c-0.68,0-1.23-0.55-1.23-1.23s0.55-1.23,1.23-1.23h13.77c0.68,0,1.23,0.55,1.23,1.23
			S19.76,5.93,19.08,5.93z"/>
	</g>
</g>
<g>
	<g>
		<path class="st0" d="M3.31,7.89c-1.77,0-3.22-1.43-3.22-3.2s1.44-3.2,3.22-3.2s3.22,1.43,3.22,3.2S5.09,7.89,3.31,7.89z
			 M3.31,3.96c-0.42,0-0.76,0.33-0.76,0.74c0,0.41,0.34,0.74,0.76,0.74S4.07,5.1,4.07,4.7C4.07,4.29,3.73,3.96,3.31,3.96z"/>
	</g>
</g>
<g>
	<g>
		<path class="st0" d="M8.43,20.11c-1.77,0-3.22-1.43-3.22-3.2s1.44-3.2,3.22-3.2s3.22,1.43,3.22,3.2S10.21,20.11,8.43,20.11z
			 M8.43,16.17c-0.42,0-0.76,0.33-0.76,0.74c0,0.41,0.34,0.74,0.76,0.74s0.76-0.33,0.76-0.74C9.19,16.5,8.85,16.17,8.43,16.17z"/>
	</g>
</g>
<g>
	<g>
		<path class="st0" d="M9.66,15.21H7.21c0-6.48,5.32-11.75,11.86-11.75v2.46C13.88,5.93,9.66,10.09,9.66,15.21z"/>
	</g>
</g>
<g>
	<g>
		<path class="st0" d="M39.7,5.93H25.93c-0.68,0-1.23-0.55-1.23-1.23s0.55-1.23,1.23-1.23H39.7c0.68,0,1.23,0.55,1.23,1.23
			S40.38,5.93,39.7,5.93z"/>
	</g>
</g>
<g>
	<g>
		<path class="st0" d="M41.69,7.89c-1.77,0-3.22-1.43-3.22-3.2s1.44-3.2,3.22-3.2s3.22,1.43,3.22,3.2S43.46,7.89,41.69,7.89z
			 M41.69,3.96c-0.42,0-0.76,0.33-0.76,0.74c0,0.41,0.34,0.74,0.76,0.74s0.76-0.33,0.76-0.74C42.45,4.29,42.11,3.96,41.69,3.96z"/>
	</g>
</g>
<g>
	<g>
		<path class="st0" d="M36.57,20.11c-1.77,0-3.22-1.43-3.22-3.2s1.44-3.2,3.22-3.2s3.22,1.43,3.22,3.2S38.34,20.11,36.57,20.11z
			 M36.57,16.17c-0.42,0-0.76,0.33-0.76,0.74c0,0.41,0.34,0.74,0.76,0.74s0.76-0.33,0.76-0.74C37.32,16.5,36.98,16.17,36.57,16.17z"
			/>
	</g>
</g>
<g>
	<g>
		<path class="st0" d="M37.79,15.21h-2.46c0-5.12-4.22-9.29-9.4-9.29V3.47C32.47,3.47,37.79,8.74,37.79,15.21z"/>
	</g>
</g>
<g>
	<g>
		<path class="st0" d="M27.26,20.32c-0.51,0-0.93-0.41-0.93-0.92c0-0.51,0.42-0.92,0.93-0.92s0.93,0.41,0.93,0.92
			C28.18,19.91,27.77,20.32,27.26,20.32z M27.26,19.34c-0.03,0-0.06,0.03-0.06,0.06h0.11L27.26,19.34z"/>
	</g>
</g>
</svg>
