<?xml version="1.0" encoding="utf-8"?>
<!-- Generator: Adobe Illustrator 27.1.1, SVG Export Plug-In . SVG Version: 6.00 Build 0)  -->
<svg version="1.1" id="Слой_1" xmlns="http://www.w3.org/2000/svg" xmlns:xlink="http://www.w3.org/1999/xlink" x="0px" y="0px"
	 viewBox="0 0 34 40" style="enable-background:new 0 0 34 40;" xml:space="preserve">
<style type="text/css">
	.st0{fill:#31C4A8;}
</style>
<g>
	<path class="st0" d="M21.44,40c-0.48,0-0.95-0.17-1.32-0.48c-1.68-1.43-3.96-1.99-5.46-2.37c-0.52-0.13-0.96-0.24-1.3-0.35
		c-0.85-0.3-1.41-1.09-1.41-1.99v-3.36L6.99,26.4l1.75-1.72l5.06,5.16c0.38,0.38,0.6,0.92,0.6,1.47v3.25
		c0.24,0.07,0.52,0.14,0.84,0.22c1.56,0.39,3.85,0.95,5.84,2.39v-2.97c0-1.99,1.51-3.65,3.52-3.86c2.54-0.28,3.84-2.37,3.84-6.21
		c0-0.16,0-0.32-0.01-0.48c0-1.2,0.94-2.15,2.11-2.15h1.04l-3.05-3.61c-0.47-0.56-0.73-1.28-0.73-2.03v-5.37
		c0-3.22-2.66-7.94-8.38-7.94c-5.58,0-9.32,2.16-9.32,4.18H7.64c0-3.78,5.06-6.64,11.78-6.64c6.69,0,10.84,5.38,10.84,10.37v5.41
		c0,0.16,0.06,0.34,0.16,0.46l3.02,3.68c0.36,0.44,0.56,0.97,0.56,1.54c0,1.33-1.09,2.42-2.42,2.42H30.9c0,0.06,0,0.11,0,0.17
		c0,6.95-3.78,8.4-6.03,8.65c-0.76,0.08-1.32,0.69-1.32,1.42v3.72C23.54,39.06,22.6,40,21.44,40z M12.06,31.56
		C12.06,31.56,12.06,31.56,12.06,31.56L12.06,31.56z"/>
</g>
<g>
	<path class="st0" d="M17.82,29.96c-0.34,0-0.66-0.12-0.91-0.34l-2.97-2.68H2.97C1.33,26.94,0,25.6,0,23.97V8.13
		c0-1.64,1.33-2.97,2.97-2.97h15.77c0.68,0,1.23,0.55,1.23,1.23s-0.55,1.23-1.23,1.23H2.97c-0.29,0-0.51,0.23-0.51,0.51v15.84
		c0,0.28,0.23,0.51,0.51,0.51h11.21c0.44,0,0.88,0.16,1.23,0.46l2.19,1.98l0.95-1.55c0.31-0.54,0.92-0.89,1.59-0.89h2.12
		c0.29,0,0.51-0.23,0.51-0.51V6.27c0-0.68,0.55-1.23,1.23-1.23s1.23,0.55,1.23,1.23v17.7c0,1.64-1.33,2.97-2.97,2.97h-1.79
		l-1.45,2.36C18.73,29.73,18.29,29.96,17.82,29.96z M20.66,26.62l-0.02,0.03C20.64,26.65,20.65,26.64,20.66,26.62z"/>
</g>
<g>
	<path class="st0" d="M12.3,18.63c-1.48,0-2.68-1.21-2.68-2.69s1.2-2.69,2.68-2.69s2.68,1.21,2.68,2.69S13.78,18.63,12.3,18.63z
		 M12.3,15.23c-0.4,0-0.72,0.32-0.72,0.72c0,0.4,0.32,0.72,0.72,0.72s0.72-0.32,0.72-0.72C13.02,15.55,12.7,15.23,12.3,15.23z"/>
</g>
<g>
	<path class="st0" d="M7.87,14.11c-1.48,0-2.68-1.21-2.68-2.69s1.2-2.69,2.68-2.69s2.68,1.21,2.68,2.69S9.35,14.11,7.87,14.11z
		 M7.87,10.7c-0.4,0-0.72,0.32-0.72,0.72s0.32,0.72,0.72,0.72s0.72-0.32,0.72-0.72S8.26,10.7,7.87,10.7z"/>
</g>
<g>
	<path class="st0" d="M16.74,14.11c-1.48,0-2.68-1.21-2.68-2.69s1.2-2.69,2.68-2.69c1.48,0,2.68,1.21,2.68,2.69
		S18.22,14.11,16.74,14.11z M16.74,10.7c-0.4,0-0.72,0.32-0.72,0.72s0.32,0.72,0.72,0.72s0.72-0.32,0.72-0.72S17.14,10.7,16.74,10.7
		z"/>
</g>
<g>
	<path class="st0" d="M7.87,23.15c-1.48,0-2.68-1.21-2.68-2.69s1.2-2.69,2.68-2.69s2.68,1.21,2.68,2.69S9.35,23.15,7.87,23.15z
		 M7.87,19.75c-0.4,0-0.72,0.32-0.72,0.72s0.32,0.72,0.72,0.72s0.72-0.32,0.72-0.72S8.26,19.75,7.87,19.75z"/>
</g>
<g>
	<path class="st0" d="M16.74,23.15c-1.48,0-2.68-1.21-2.68-2.69s1.2-2.69,2.68-2.69c1.48,0,2.68,1.21,2.68,2.69
		S18.22,23.15,16.74,23.15z M16.74,19.75c-0.4,0-0.72,0.32-0.72,0.72s0.32,0.72,0.72,0.72s0.72-0.32,0.72-0.72
		S17.14,19.75,16.74,19.75z"/>
</g>
<g>
	
		<rect x="12.98" y="12.64" transform="matrix(0.7061 -0.7081 0.7081 0.7061 -5.3953 14.2388)" class="st0" width="2.95" height="1.97"/>
</g>
<g>
	
		<rect x="8.97" y="12.25" transform="matrix(0.7079 -0.7063 0.7063 0.7079 -6.8106 11.0507)" class="st0" width="1.97" height="3.03"/>
</g>
<g>
	
		<rect x="8.45" y="17.87" transform="matrix(0.7061 -0.7081 0.7081 0.7061 -10.4316 12.5695)" class="st0" width="2.95" height="1.97"/>
</g>
<g>
	
		<rect x="13.44" y="17.19" transform="matrix(0.7063 -0.7079 0.7079 0.7063 -9.0094 15.7058)" class="st0" width="1.97" height="3.03"/>
</g>
<g>
	<path class="st0" d="M21.38,7.31c-0.51,0-0.92-0.41-0.92-0.92s0.41-0.92,0.92-0.92c0.51,0,0.92,0.41,0.92,0.92
		S21.89,7.31,21.38,7.31z M21.38,6.33c-0.03,0-0.06,0.03-0.06,0.06h0.12L21.38,6.33z"/>
</g>
</svg>
