<?xml version="1.0" encoding="utf-8"?>
<!-- Generator: Adobe Illustrator 27.1.1, SVG Export Plug-In . SVG Version: 6.00 Build 0)  -->
<svg version="1.1" id="Слой_1" xmlns="http://www.w3.org/2000/svg" xmlns:xlink="http://www.w3.org/1999/xlink" x="0px" y="0px"
	 viewBox="0 0 1920 812" style="enable-background:new 0 0 1920 812;" xml:space="preserve">
<style type="text/css">
	.st0{fill-rule:evenodd;clip-rule:evenodd;fill:#E9F1FF;}
</style>
<path class="st0" d="M1920,0c0,0,0,621.5,0,715c-46.7,9.3-102.5-12.6-151.1-3.5c-48.1,9.1-90.4,50.7-140.5,58
	c-48.6,7.1-103.4-20.4-153.8-15c-49,5.2-95.1,43.5-145.5,47c-49.3,3.4-101.4-27.9-151.9-26.2c-49.5,1.7-98.8,36.6-149.2,36.6
	c-50.5,0-99.7-34.9-149.2-36.6c-50.5-1.7-102.6,29.6-151.9,26.2c-50.4-3.5-96.5-41.8-145.5-47c-50.3-5.4-105.1,22.1-153.8,15
	c-50.1-7.3-92.4-49-140.5-58c-49.8-9.4-107.2,13.5-154.7,2.3C83.4,702.4,46.1,657.8,0,644C0,610.9,0,0,0,0H1920z"/>
</svg>
