<?xml version="1.0" encoding="utf-8"?>
<!-- Generator: Adobe Illustrator 27.1.1, SVG Export Plug-In . SVG Version: 6.00 Build 0)  -->
<svg version="1.1" id="Слой_1" xmlns="http://www.w3.org/2000/svg" xmlns:xlink="http://www.w3.org/1999/xlink" x="0px" y="0px"
	 viewBox="0 0 380 190" style="enable-background:new 0 0 380 190;" xml:space="preserve">
<style type="text/css">
	.st0{fill:#FFFFFF;}
	.st1{fill:#EDF0FC;}
	.st2{fill:#0447F4;}
</style>
<g>
	<path shape-rendering="crispEdges" class="st0" d="M40,70c0-27.6,22.4-50,50-50h240c5.5,0,10,4.5,10,10v50c0,27.6-22.4,50-50,50H50
		c-5.5,0-10-4.5-10-10V70z"/>
	<circle class="st1" cx="95" cy="75" r="33"/>
	<path class="st2" d="M106,93.7c-1.7,0-4.1-0.6-7.6-2.6c-4.3-2.4-7.7-4.7-11.9-8.9c-4.1-4.1-6.2-6.8-9-11.9c-3.2-5.8-2.6-8.8-2-10.1
		c0.7-1.6,1.8-2.5,3.2-3.4c0.8-0.5,1.6-1,2.5-1.3c0.1,0,0.2-0.1,0.2-0.1c0.4-0.2,1.1-0.5,1.9-0.2c0.5,0.2,1,0.6,1.8,1.4
		c1.6,1.5,3.7,5,4.5,6.7c0.5,1.1,0.9,1.9,0.9,2.7c0,1-0.5,1.8-1.1,2.6c-0.1,0.2-0.2,0.3-0.3,0.4c-0.7,0.9-0.8,1.1-0.7,1.6
		c0.2,0.9,1.6,3.6,4,5.9c2.4,2.4,5,3.7,5.9,3.9c0.5,0.1,0.7-0.1,1.6-0.7c0.1-0.1,0.3-0.2,0.4-0.3c0.9-0.7,1.6-1.2,2.6-1.2h0
		c0.8,0,1.6,0.4,2.8,1c1.6,0.8,5.1,2.9,6.7,4.5c0.8,0.8,1.2,1.3,1.4,1.8c0.3,0.8,0,1.5-0.2,1.9c0,0.1-0.1,0.2-0.1,0.2
		c-0.4,0.9-0.8,1.7-1.3,2.5c-0.9,1.4-1.8,2.4-3.4,3.2C107.8,93.5,106.9,93.7,106,93.7z"/>
</g>
</svg>
