<?xml version="1.0" encoding="utf-8"?>
<!-- Generator: Adobe Illustrator 27.1.1, SVG Export Plug-In . SVG Version: 6.00 Build 0)  -->
<svg version="1.1" id="_Слой_1" xmlns="http://www.w3.org/2000/svg" xmlns:xlink="http://www.w3.org/1999/xlink" x="0px"
	 y="0px" viewBox="0 0 1089 605" style="enable-background:new 0 0 1089 605;" xml:space="preserve">
<style type="text/css">
	.st0{fill:#A84DFF;}
	.st1{fill:#E4CCFF;}
	.st2{fill:#C3DAFC;}
</style>
<g>
	<circle class="st0" cx="969.2" cy="172.1" r="2.1"/>
	<circle class="st0" cx="986" cy="172.1" r="2.1"/>
	<circle class="st0" cx="1002.8" cy="172.1" r="2.1"/>
	<circle class="st0" cx="1019.7" cy="172.1" r="2.1"/>
	<circle class="st0" cx="1036.5" cy="172.1" r="2.1"/>
	<circle class="st0" cx="952.4" cy="155.1" r="2.1"/>
	<circle class="st0" cx="969.2" cy="155.1" r="2.1"/>
	<circle class="st0" cx="986" cy="155.1" r="2.1"/>
	<circle class="st0" cx="1002.8" cy="155.1" r="2.1"/>
	<circle class="st0" cx="1019.7" cy="155.1" r="2.1"/>
	<circle class="st0" cx="1036.5" cy="155.1" r="2.1"/>
	<circle class="st0" cx="1053.3" cy="155.1" r="2.1"/>
	<circle class="st0" cx="935.6" cy="138.1" r="2.1"/>
	<circle class="st0" cx="952.4" cy="138.1" r="2.1"/>
	<circle class="st0" cx="969.2" cy="138.1" r="2.1"/>
	<circle class="st0" cx="986" cy="138.1" r="2.1"/>
	<circle class="st0" cx="1002.8" cy="138.1" r="2.1"/>
	<circle class="st0" cx="1019.7" cy="138.1" r="2.1"/>
	<circle class="st0" cx="1036.5" cy="138.1" r="2.1"/>
	<circle class="st0" cx="1053.3" cy="138.1" r="2.1"/>
	<circle class="st0" cx="1070.1" cy="138.1" r="2.1"/>
	<circle class="st0" cx="918.8" cy="121.1" r="2.1"/>
	<circle class="st0" cx="935.6" cy="121.1" r="2.1"/>
	<circle class="st0" cx="952.4" cy="121.1" r="2.1"/>
	<circle class="st0" cx="969.2" cy="121.1" r="2.1"/>
	<circle class="st0" cx="986" cy="121.1" r="2.1"/>
	<circle class="st0" cx="1002.8" cy="121.1" r="2.1"/>
	<circle class="st0" cx="1019.7" cy="121.1" r="2.1"/>
	<circle class="st0" cx="1036.5" cy="121.1" r="2.1"/>
	<circle class="st0" cx="1053.3" cy="121.1" r="2.1"/>
	<circle class="st0" cx="1070.1" cy="121.1" r="2.1"/>
	<circle class="st0" cx="1086.9" cy="121.1" r="2.1"/>
	<circle class="st0" cx="918.8" cy="104.1" r="2.1"/>
	<circle class="st0" cx="935.6" cy="104.1" r="2.1"/>
	<circle class="st0" cx="952.4" cy="104.1" r="2.1"/>
	<circle class="st0" cx="969.2" cy="104.1" r="2.1"/>
	<circle class="st0" cx="986" cy="104.1" r="2.1"/>
	<circle class="st0" cx="1002.8" cy="104.1" r="2.1"/>
	<circle class="st0" cx="1019.7" cy="104.1" r="2.1"/>
	<circle class="st0" cx="1036.5" cy="104.1" r="2.1"/>
	<circle class="st0" cx="1053.3" cy="104.1" r="2.1"/>
	<circle class="st0" cx="1070.1" cy="104.1" r="2.1"/>
	<circle class="st0" cx="1086.9" cy="104.1" r="2.1"/>
	<circle class="st0" cx="918.8" cy="87.1" r="2.1"/>
	<circle class="st0" cx="935.6" cy="87.1" r="2.1"/>
	<circle class="st0" cx="952.4" cy="87.1" r="2.1"/>
	<circle class="st0" cx="969.2" cy="87.1" r="2.1"/>
	<circle class="st0" cx="986" cy="87.1" r="2.1"/>
	<circle class="st0" cx="1002.8" cy="87.1" r="2.1"/>
	<circle class="st0" cx="1019.7" cy="87.1" r="2.1"/>
	<circle class="st0" cx="1036.5" cy="87.1" r="2.1"/>
	<circle class="st0" cx="1053.3" cy="87.1" r="2.1"/>
	<circle class="st0" cx="1070.1" cy="87.1" r="2.1"/>
	<circle class="st0" cx="1086.9" cy="87.1" r="2.1"/>
	<circle class="st0" cx="918.8" cy="70.1" r="2.1"/>
	<circle class="st0" cx="935.6" cy="70.1" r="2.1"/>
	<circle class="st0" cx="952.4" cy="70.1" r="2.1"/>
	<circle class="st0" cx="969.2" cy="70.1" r="2.1"/>
	<circle class="st0" cx="986" cy="70.1" r="2.1"/>
	<circle class="st0" cx="1002.8" cy="70.1" r="2.1"/>
	<circle class="st0" cx="1019.7" cy="70.1" r="2.1"/>
	<circle class="st0" cx="1036.5" cy="70.1" r="2.1"/>
	<circle class="st0" cx="1053.3" cy="70.1" r="2.1"/>
	<circle class="st0" cx="1070.1" cy="70.1" r="2.1"/>
	<circle class="st0" cx="1086.9" cy="70.1" r="2.1"/>
	<circle class="st0" cx="918.8" cy="53.1" r="2.1"/>
	<circle class="st0" cx="935.6" cy="53.1" r="2.1"/>
	<circle class="st0" cx="952.4" cy="53.1" r="2.1"/>
	<circle class="st0" cx="969.2" cy="53.1" r="2.1"/>
	<circle class="st0" cx="986" cy="53.1" r="2.1"/>
	<circle class="st0" cx="1002.8" cy="53.1" r="2.1"/>
	<circle class="st0" cx="1019.7" cy="53.1" r="2.1"/>
	<circle class="st0" cx="1036.5" cy="53.1" r="2.1"/>
	<circle class="st0" cx="1053.3" cy="53.1" r="2.1"/>
	<circle class="st0" cx="1070.1" cy="53.1" r="2.1"/>
	<circle class="st0" cx="1086.9" cy="53.1" r="2.1"/>
	<circle class="st0" cx="935.6" cy="36.1" r="2.1"/>
	<circle class="st0" cx="952.4" cy="36.1" r="2.1"/>
	<circle class="st0" cx="969.2" cy="36.1" r="2.1"/>
	<circle class="st0" cx="986" cy="36.1" r="2.1"/>
	<circle class="st0" cx="1002.8" cy="36.1" r="2.1"/>
	<circle class="st0" cx="1019.7" cy="36.1" r="2.1"/>
	<circle class="st0" cx="1036.5" cy="36.1" r="2.1"/>
	<circle class="st0" cx="1053.3" cy="36.1" r="2.1"/>
	<circle class="st0" cx="1070.1" cy="36.1" r="2.1"/>
	<circle class="st0" cx="952.4" cy="19.1" r="2.1"/>
	<circle class="st0" cx="969.2" cy="19.1" r="2.1"/>
	<circle class="st0" cx="986" cy="19.1" r="2.1"/>
	<circle class="st0" cx="1002.8" cy="19.1" r="2.1"/>
	<circle class="st0" cx="1019.7" cy="19.1" r="2.1"/>
	<circle class="st0" cx="1036.5" cy="19.1" r="2.1"/>
	<circle class="st0" cx="1053.3" cy="19.1" r="2.1"/>
	<circle class="st0" cx="969.2" cy="2.1" r="2.1"/>
	<circle class="st0" cx="986" cy="2.1" r="2.1"/>
	<circle class="st0" cx="1002.8" cy="2.1" r="2.1"/>
	<circle class="st0" cx="1019.7" cy="2.1" r="2.1"/>
	<circle class="st0" cx="1036.5" cy="2.1" r="2.1"/>
</g>
<path class="st1" d="M7.9,544.5c-3.1-3.2-15.6-13.8-0.8-32.9s51.8-27.8,71.8-23.6s24,14.7,20.4,21.7S57.4,550,29.2,550.5
	C15.4,550.8,11,547.7,7.9,544.5z"/>
<path class="st2" d="M66.9,532.3c-0.2,0-0.3,0-0.5-0.1c-17.5-2.2-30.4,16.1-22.3,31.9l0,0c2.9,5.6,6.2,10.8,10,15.8l0,0
	c6.3,8.3,14.2,15.3,23.2,20.6l0.5,0.3c20.2,12,45.6-3.5,44.1-27l-0.3-5.2c-0.4-6.8-2.1-13.5-4.9-19.7c0-0.1-0.1-0.2-0.1-0.3
	c-5.4-11.9-18-18.8-30.9-17.1l-5.1,0.7C76.1,532.9,71.5,532.9,66.9,532.3L66.9,532.3z"/>
</svg>
