<?xml version="1.0" encoding="UTF-8"?>
<svg id="_Слой_1" data-name=" Слой 1" xmlns="http://www.w3.org/2000/svg" xmlns:xlink="http://www.w3.org/1999/xlink" viewBox="0 0 503.98 124.19">
  <defs>
    <style>
      .cls-1 {
        clip-path: url(#clippath-2);
      }

      .cls-2 {
        clip-path: url(#clippath-1);
      }

      .cls-3 {
        clip-path: url(#clippath);
      }

      .cls-4 {
        fill: none;
      }

      .cls-5 {
        fill: #0447f4;
      }
    </style>
    <clipPath id="clippath">
      <rect class="cls-4" width="124.17" height="124.19"/>
    </clipPath>
    <clipPath id="clippath-1">
      <path class="cls-4" d="m40.4,0h43.38c22.31,0,40.4,18.09,40.4,40.4v43.4c0,22.31-18.09,40.4-40.4,40.4h-43.38C18.09,124.19,0,106.1,0,83.79v-43.4C0,18.09,18.09,0,40.4,0"/>
    </clipPath>
    <clipPath id="clippath-2">
      <rect class="cls-4" x="56.57" y="53.81" width="67.6" height="13.8"/>
    </clipPath>
  </defs>
  <g class="cls-3">
    <g class="cls-2">
      <path d="m0,0h124.17v124.19H0V0Z"/>
    </g>
  </g>
  <rect class="cls-4" x="31.03" y="24.01" width="45.66" height="75.52"/>
  <path class="cls-5" d="m76.42,55.1c-.26-.49-.77-.79-1.33-.79h-16.53l2.88-28.49c.07-.7-.35-1.35-1.02-1.58s-1.39.04-1.77.61l-27.29,42.2c-.3.47-.32,1.05-.05,1.55s.77.79,1.33.79h16.53l-2.86,28.49c-.07.7.35,1.35,1,1.58.16.07.33.09.49.09.51,0,1-.26,1.28-.7l27.29-42.2c.3-.47.32-1.05.05-1.55Z"/>
  <g>
    <rect class="cls-5" x="56.57" y="53.81" width="67.6" height="13.8"/>
    <g class="cls-1">
      <path class="cls-5" d="m56.57,53.81h67.6v13.8H56.57v-13.8Z"/>
    </g>
  </g>
  <path d="m210.44,78.95h-29.52v-11.5h26.98v-11.84h-26.98v-11.33h28.66v-11.84h-43.87v58.35h44.73v-11.84h0Z"/>
  <path d="m275.55,90.78v-58.35h-15.23v24.94c0,3.37.09,9.38.51,15.3l-22.15-40.26h-18.93v58.35h15.21v-24.1c0-3.37,0-8.54-.51-14.45l21.22,38.55h19.88v.02Z"/>
  <path d="m314.68,59.66v11.84h11.33c-2.13,6.43-6.01,9.31-11.93,9.31-7.18,0-13.52-4.99-13.52-19.71,0-12.59,6.18-18.69,13.61-18.69,6.18,0,9.98,2.97,11.26,9.22l.16.84h15.23l-.09-.84c-1.18-11.5-9.73-20.37-26.38-20.37s-29.68,10.49-29.68,30.79,10.91,29.93,26.47,29.93c6.16,0,10.15-.93,13.44-3.71l2.55-6.43,1.44,8.96h11.84v-31.12h-25.71v-.02Z"/>
  <path class="cls-5" d="m398.55,44.28v-11.84h-53.11v11.84h18.95v46.51h15.23v-46.51h18.95-.02Z"/>
  <path class="cls-5" d="m449.2,78.95h-29.52v-11.5h26.98v-11.84h-26.98v-11.33h28.66v-11.84h-43.87v58.35h44.73v-11.84h0Z"/>
  <path class="cls-5" d="m503.98,78.95h-28.93l28.59-34.76v-11.75h-45.07v11.84h26.47l-28.84,35v11.5h47.77v-11.84h0Z"/>
</svg>