<?xml version="1.0" encoding="UTF-8"?>
<svg xmlns="http://www.w3.org/2000/svg" xmlns:xlink="http://www.w3.org/1999/xlink" width="150px" height="37px" viewBox="0 0 150 37" version="1.1">
<defs>
<clipPath id="clip1">
  <path d="M 0.117188 0 L 37.015625 0 L 37.015625 37 L 0.117188 37 Z M 0.117188 0 "/>
</clipPath>
<clipPath id="clip2">
  <path d="M 12.125 0 L 25.015625 0 C 31.644531 0 37.019531 5.390625 37.019531 12.035156 L 37.019531 24.964844 C 37.019531 31.613281 31.644531 37.003906 25.015625 37.003906 L 12.125 37.003906 C 5.492188 37 0.117188 31.609375 0.117188 24.964844 L 0.117188 12.035156 C 0.117188 5.390625 5.492188 0 12.125 0 "/>
</clipPath>
<clipPath id="clip3">
  <path d="M 16.929688 16.03125 L 37.015625 16.03125 L 37.015625 20.144531 L 16.929688 20.144531 Z M 16.929688 16.03125 "/>
</clipPath>
</defs>
<g id="surface1">
<g clip-path="url(#clip1)" clip-rule="nonzero">
<g clip-path="url(#clip2)" clip-rule="nonzero">
<path style=" stroke:none;fill-rule:nonzero;fill:rgb(0%,0%,0%);fill-opacity:1;" d="M 0.117188 0 L 37.015625 0 L 37.015625 37 L 0.117188 37 Z M 0.117188 0 "/>
</g>
</g>
<path style=" stroke:none;fill-rule:nonzero;fill:rgb(1.568627%,27.843137%,95.686275%);fill-opacity:1;" d="M 22.828125 16.414062 C 22.75 16.269531 22.597656 16.179688 22.433594 16.179688 L 17.519531 16.179688 L 18.375 7.691406 C 18.394531 7.484375 18.269531 7.289062 18.074219 7.222656 C 17.875 7.152344 17.660156 7.234375 17.546875 7.402344 L 9.4375 19.976562 C 9.347656 20.117188 9.339844 20.289062 9.421875 20.4375 C 9.503906 20.585938 9.652344 20.671875 9.816406 20.671875 L 14.730469 20.671875 L 13.878906 29.160156 C 13.859375 29.371094 13.984375 29.5625 14.175781 29.632812 C 14.222656 29.652344 14.273438 29.660156 14.320312 29.660156 C 14.472656 29.660156 14.621094 29.582031 14.703125 29.449219 L 22.8125 16.878906 C 22.902344 16.738281 22.90625 16.566406 22.828125 16.414062 Z M 22.828125 16.414062 "/>
<path style=" stroke:none;fill-rule:nonzero;fill:rgb(1.568627%,27.843137%,95.686275%);fill-opacity:1;" d="M 16.929688 16.03125 L 37.015625 16.03125 L 37.015625 20.144531 L 16.929688 20.144531 Z M 16.929688 16.03125 "/>
<g clip-path="url(#clip3)" clip-rule="nonzero">
<path style=" stroke:none;fill-rule:nonzero;fill:rgb(1.568627%,27.843137%,95.686275%);fill-opacity:1;" d="M 16.929688 16.03125 L 37.015625 16.03125 L 37.015625 20.144531 L 16.929688 20.144531 Z M 16.929688 16.03125 "/>
</g>
<path style=" stroke:none;fill-rule:nonzero;fill:rgb(0%,0%,0%);fill-opacity:1;" d="M 62.652344 23.523438 L 53.878906 23.523438 L 53.878906 20.09375 L 61.898438 20.09375 L 61.898438 16.566406 L 53.878906 16.566406 L 53.878906 13.191406 L 62.398438 13.191406 L 62.398438 9.664062 L 49.359375 9.664062 L 49.359375 27.050781 L 62.652344 27.050781 Z M 62.652344 23.523438 "/>
<path style=" stroke:none;fill-rule:nonzero;fill:rgb(0%,0%,0%);fill-opacity:1;" d="M 82 27.046875 L 82 9.660156 L 77.476562 9.660156 L 77.476562 17.09375 C 77.476562 18.097656 77.503906 19.886719 77.625 21.652344 L 71.042969 9.65625 L 65.417969 9.65625 L 65.417969 27.039062 L 69.9375 27.039062 L 69.9375 19.859375 C 69.9375 18.855469 69.9375 17.316406 69.789062 15.554688 L 76.09375 27.039062 L 82 27.039062 Z M 82 27.046875 "/>
<path style=" stroke:none;fill-rule:nonzero;fill:rgb(0%,0%,0%);fill-opacity:1;" d="M 93.628906 17.773438 L 93.628906 21.300781 L 96.996094 21.300781 C 96.363281 23.21875 95.210938 24.074219 93.449219 24.074219 C 91.316406 24.074219 89.433594 22.589844 89.433594 18.203125 C 89.433594 14.453125 91.269531 12.636719 93.476562 12.636719 C 95.3125 12.636719 96.441406 13.519531 96.824219 15.382812 L 96.871094 15.632812 L 101.398438 15.632812 L 101.371094 15.382812 C 101.019531 11.957031 98.480469 9.3125 93.53125 9.3125 C 88.582031 9.3125 84.710938 12.4375 84.710938 18.488281 C 84.710938 24.535156 87.953125 27.402344 92.578125 27.402344 C 94.40625 27.402344 95.59375 27.125 96.570312 26.296875 L 97.328125 24.382812 L 97.757812 27.050781 L 101.273438 27.050781 L 101.273438 17.78125 L 93.636719 17.78125 L 93.636719 17.773438 Z M 93.628906 17.773438 "/>
<path style=" stroke:none;fill-rule:nonzero;fill:rgb(1.568627%,27.843137%,95.686275%);fill-opacity:1;" d="M 118.550781 13.191406 L 118.550781 9.664062 L 102.769531 9.664062 L 102.769531 13.191406 L 108.402344 13.191406 L 108.402344 27.050781 L 112.925781 27.050781 L 112.925781 13.191406 L 118.558594 13.191406 Z M 118.550781 13.191406 "/>
<path style=" stroke:none;fill-rule:nonzero;fill:rgb(1.568627%,27.843137%,95.686275%);fill-opacity:1;" d="M 133.605469 23.523438 L 124.832031 23.523438 L 124.832031 20.09375 L 132.847656 20.09375 L 132.847656 16.566406 L 124.832031 16.566406 L 124.832031 13.191406 L 133.347656 13.191406 L 133.347656 9.664062 L 120.3125 9.664062 L 120.3125 27.050781 L 133.605469 27.050781 Z M 133.605469 23.523438 "/>
<path style=" stroke:none;fill-rule:nonzero;fill:rgb(1.568627%,27.843137%,95.686275%);fill-opacity:1;" d="M 149.882812 23.523438 L 141.285156 23.523438 L 149.78125 13.164062 L 149.78125 9.664062 L 136.386719 9.664062 L 136.386719 13.191406 L 144.253906 13.191406 L 135.683594 23.621094 L 135.683594 27.046875 L 149.878906 27.046875 L 149.878906 23.519531 Z M 149.882812 23.523438 "/>
</g>
</svg>
