<svg xmlns="http://www.w3.org/2000/svg" xmlns:xlink="http://www.w3.org/1999/xlink" width="500" zoomAndPan="magnify" viewBox="0 0 375 374.999991" height="500" preserveAspectRatio="xMidYMid meet" version="1.0">
  <defs>
    <clipPath id="c3d3c64620">
      <path d="M 0.691406 0 L 375 0 L 375 375 L 0.691406 375 Z M 0.691406 0 " clip-rule="nonzero"/>
    </clipPath>
    <clipPath id="35290f3bd7">
      <path d="M 122.667969 0 L 253.640625 0 C 320.996094 0 375.613281 54.625 375.613281 121.992188 L 375.613281 253.039062 C 375.613281 320.40625 320.996094 375.03125 253.640625 375.03125 L 122.667969 375.03125 C 55.308594 375 0.691406 320.375 0.691406 253.007812 L 0.691406 121.960938 C 0.691406 54.625 55.308594 0 122.667969 0 " clip-rule="nonzero"/>
    </clipPath>
    <clipPath id="37de99fd84">
      <path d="M 171.488281 162.484375 L 375 162.484375 L 375 204.152344 L 171.488281 204.152344 Z M 171.488281 162.484375 " clip-rule="nonzero"/>
    </clipPath>
  </defs>
  <!-- Ваш код для фигур -->
  <g clip-path="url(#c3d3c64620)">
    <g clip-path="url(#35290f3bd7)">
      <path fill="#000000" d="M 0.691406 0 L 375.585938 0 L 375.585938 375 L 0.691406 375 Z M 0.691406 0 " fill-opacity="1" fill-rule="nonzero"/>
    </g>
  </g>
  <path fill="#0447f4" d="M 231.417969 166.378906 C 230.632812 164.898438 229.09375 163.992188 227.402344 163.992188 L 177.496094 163.992188 L 186.191406 77.964844 C 186.402344 75.851562 185.132812 73.890625 183.109375 73.195312 C 181.085938 72.5 178.914062 73.316406 177.765625 75.035156 L 95.371094 202.460938 C 94.46875 203.882812 94.40625 205.632812 95.222656 207.140625 C 96.035156 208.652344 97.546875 209.527344 99.238281 209.527344 L 149.144531 209.527344 L 140.507812 295.554688 C 140.296875 297.667969 141.566406 299.632812 143.527344 300.324219 C 144.011719 300.539062 144.523438 300.597656 145.007812 300.597656 C 146.546875 300.597656 148.027344 299.8125 148.871094 298.484375 L 231.265625 171.058594 C 232.171875 169.640625 232.234375 167.886719 231.417969 166.378906 Z M 231.417969 166.378906 " fill-opacity="1" fill-rule="nonzero"/>
  <path fill="#0447f4" d="M 171.488281 162.484375 L 375.585938 162.484375 L 375.585938 204.152344 L 171.488281 204.152344 Z M 171.488281 162.484375 " fill-opacity="1" fill-rule="nonzero"/>
  <g clip-path="url(#37de99fd84)">
    <path fill="#0447f4" d="M 171.488281 162.484375 L 375.585938 162.484375 L 375.585938 204.152344 L 171.488281 204.152344 Z M 171.488281 162.484375 " fill-opacity="1" fill-rule="nonzero"/>
  </g>
</svg>
