<?xml version="1.0" encoding="UTF-8"?>
<svg xmlns="http://www.w3.org/2000/svg" xmlns:xlink="http://www.w3.org/1999/xlink" width="81px" height="20px" viewBox="0 0 81 20" version="1.1">
<defs>
<clipPath id="clip1">
  <path d="M 0.0625 0 L 19.988281 0 L 19.988281 20 L 0.0625 20 Z M 0.0625 0 "/>
</clipPath>
<clipPath id="clip2">
  <path d="M 6.546875 0 L 13.507812 0 C 17.085938 0 19.992188 2.914062 19.992188 6.507812 L 19.992188 13.496094 C 19.992188 17.089844 17.085938 20 13.507812 20 L 6.546875 20 C 2.964844 20 0.0625 17.085938 0.0625 13.492188 L 0.0625 6.503906 C 0.0625 2.914062 2.964844 0 6.546875 0 "/>
</clipPath>
<clipPath id="clip3">
  <path d="M 9.140625 8.664062 L 19.988281 8.664062 L 19.988281 10.886719 L 9.140625 10.886719 Z M 9.140625 8.664062 "/>
</clipPath>
</defs>
<g id="surface1">
<g clip-path="url(#clip1)" clip-rule="nonzero">
<g clip-path="url(#clip2)" clip-rule="nonzero">
<path style=" stroke:none;fill-rule:nonzero;fill:rgb(0%,0%,0%);fill-opacity:1;" d="M 0.0625 0 L 19.988281 0 L 19.988281 20 L 0.0625 20 Z M 0.0625 0 "/>
</g>
</g>
<path style=" stroke:none;fill-rule:nonzero;fill:rgb(1.568627%,27.843137%,95.686275%);fill-opacity:1;" d="M 12.328125 8.875 C 12.285156 8.792969 12.203125 8.746094 12.113281 8.746094 L 9.460938 8.746094 L 9.921875 4.15625 C 9.933594 4.046875 9.867188 3.941406 9.757812 3.902344 C 9.652344 3.867188 9.535156 3.910156 9.476562 4 L 5.097656 10.796875 C 5.046875 10.875 5.042969 10.96875 5.085938 11.046875 C 5.132812 11.128906 5.210938 11.175781 5.300781 11.175781 L 7.953125 11.175781 L 7.496094 15.761719 C 7.484375 15.875 7.550781 15.980469 7.65625 16.015625 C 7.679688 16.027344 7.707031 16.03125 7.734375 16.03125 C 7.816406 16.03125 7.894531 15.988281 7.9375 15.917969 L 12.320312 9.125 C 12.367188 9.046875 12.371094 8.953125 12.328125 8.875 Z M 12.328125 8.875 "/>
<path style=" stroke:none;fill-rule:nonzero;fill:rgb(1.568627%,27.843137%,95.686275%);fill-opacity:1;" d="M 9.140625 8.664062 L 19.988281 8.664062 L 19.988281 10.886719 L 9.140625 10.886719 Z M 9.140625 8.664062 "/>
<g clip-path="url(#clip3)" clip-rule="nonzero">
<path style=" stroke:none;fill-rule:nonzero;fill:rgb(1.568627%,27.843137%,95.686275%);fill-opacity:1;" d="M 9.140625 8.664062 L 19.988281 8.664062 L 19.988281 10.886719 L 9.140625 10.886719 Z M 9.140625 8.664062 "/>
</g>
<path style=" stroke:none;fill-rule:nonzero;fill:rgb(0%,0%,0%);fill-opacity:1;" d="M 33.832031 12.714844 L 29.09375 12.714844 L 29.09375 10.863281 L 33.425781 10.863281 L 33.425781 8.957031 L 29.09375 8.957031 L 29.09375 7.132812 L 33.695312 7.132812 L 33.695312 5.222656 L 26.65625 5.222656 L 26.65625 14.621094 L 33.832031 14.621094 Z M 33.832031 12.714844 "/>
<path style=" stroke:none;fill-rule:nonzero;fill:rgb(0%,0%,0%);fill-opacity:1;" d="M 44.28125 14.621094 L 44.28125 5.222656 L 41.835938 5.222656 L 41.835938 9.238281 C 41.835938 9.78125 41.851562 10.75 41.917969 11.703125 L 38.363281 5.21875 L 35.328125 5.21875 L 35.328125 14.617188 L 37.765625 14.617188 L 37.765625 10.734375 C 37.765625 10.191406 37.765625 9.359375 37.683594 8.40625 L 41.089844 14.617188 L 44.28125 14.617188 Z M 44.28125 14.621094 "/>
<path style=" stroke:none;fill-rule:nonzero;fill:rgb(0%,0%,0%);fill-opacity:1;" d="M 50.558594 9.609375 L 50.558594 11.515625 L 52.378906 11.515625 C 52.035156 12.550781 51.414062 13.015625 50.464844 13.015625 C 49.3125 13.015625 48.292969 12.210938 48.292969 9.839844 C 48.292969 7.8125 49.285156 6.828125 50.476562 6.828125 C 51.46875 6.828125 52.078125 7.308594 52.285156 8.316406 L 52.308594 8.449219 L 54.753906 8.449219 L 54.738281 8.316406 C 54.550781 6.460938 53.179688 5.035156 50.507812 5.035156 C 47.835938 5.035156 45.742188 6.722656 45.742188 9.992188 C 45.742188 13.261719 47.496094 14.8125 49.992188 14.8125 C 50.980469 14.8125 51.621094 14.664062 52.148438 14.214844 L 52.558594 13.179688 L 52.789062 14.621094 L 54.6875 14.621094 L 54.6875 9.609375 Z M 50.558594 9.609375 "/>
<path style=" stroke:none;fill-rule:nonzero;fill:rgb(1.568627%,27.843137%,95.686275%);fill-opacity:1;" d="M 64.019531 7.132812 L 64.019531 5.222656 L 55.496094 5.222656 L 55.496094 7.132812 L 58.535156 7.132812 L 58.535156 14.621094 L 60.980469 14.621094 L 60.980469 7.132812 Z M 64.019531 7.132812 "/>
<path style=" stroke:none;fill-rule:nonzero;fill:rgb(1.568627%,27.843137%,95.686275%);fill-opacity:1;" d="M 72.144531 12.714844 L 67.410156 12.714844 L 67.410156 10.863281 L 71.738281 10.863281 L 71.738281 8.957031 L 67.410156 8.957031 L 67.410156 7.132812 L 72.007812 7.132812 L 72.007812 5.222656 L 64.96875 5.222656 L 64.96875 14.621094 L 72.144531 14.621094 Z M 72.144531 12.714844 "/>
<path style=" stroke:none;fill-rule:nonzero;fill:rgb(1.568627%,27.843137%,95.686275%);fill-opacity:1;" d="M 80.9375 12.714844 L 76.292969 12.714844 L 80.882812 7.117188 L 80.882812 5.222656 L 73.648438 5.222656 L 73.648438 7.132812 L 77.898438 7.132812 L 73.269531 12.765625 L 73.269531 14.621094 L 80.933594 14.621094 L 80.933594 12.710938 Z M 80.9375 12.714844 "/>
</g>
</svg>
