<?xml version="1.0" encoding="UTF-8"?>
<svg id="_Слой_1" data-name="Слой 1" xmlns="http://www.w3.org/2000/svg" xmlns:xlink="http://www.w3.org/1999/xlink" viewBox="0 0 600 600">
  <defs>
    <style>
      .cls-1 {
        fill: #fff;
      }

      .cls-2 {
        clip-path: url(#clippath-1);
      }

      .cls-3 {
        clip-path: url(#clippath);
      }

      .cls-4 {
        fill: none;
      }

      .cls-5 {
        clip-path: url(#clippath-3);
      }

      .cls-6 {
        fill: #0447f4;
      }
    </style>
    <clipPath id="clippath">
      <rect class="cls-4" x="147.74" y="264.65" width="70.7" height="70.71"/>
    </clipPath>
    <clipPath id="clippath-1">
      <path class="cls-4" d="m170.74,264.65h24.7c12.7,0,23,10.3,23,23v24.71c0,12.7-10.3,23-23,23h-24.7c-12.7,0-23-10.3-23-23v-24.71c0-12.7,10.3-23,23-23"/>
    </clipPath>
    <clipPath id="clippath-3">
      <rect class="cls-6" x="179.95" y="295.29" width="38.49" height="7.86"/>
    </clipPath>
  </defs>
  <rect class="cls-1" width="600" height="600"/>
  <g class="cls-3">
    <g class="cls-2">
      <path d="m147.74,264.65h70.7v70.71h-70.7v-70.71Z"/>
    </g>
  </g>
  <rect class="cls-4" x="165.41" y="278.32" width="26" height="43"/>
  <path class="cls-6" d="m191.25,296.02c-.15-.28-.44-.45-.76-.45h-9.41l1.64-16.22c.04-.4-.2-.77-.58-.9-.38-.13-.79.02-1.01.35l-15.54,24.03c-.17.27-.18.6-.03.88s.44.45.76.45h9.41l-1.63,16.22c-.04.4.2.77.57.9.09.04.19.05.28.05.29,0,.57-.15.73-.4l15.54-24.03c.17-.27.18-.6.03-.88Z"/>
  <g>
    <rect class="cls-6" x="179.95" y="295.29" width="38.49" height="7.86"/>
    <g class="cls-5">
      <path class="cls-6" d="m179.95,295.29h38.49v7.86h-38.49v-7.86Z"/>
    </g>
  </g>
  <path class="cls-6" d="m267.56,309.6h-16.81v-6.55h15.36v-6.74h-15.36v-6.45h16.32v-6.74h-24.98v33.22h25.47v-6.74Z"/>
  <path class="cls-6" d="m304.63,316.34v-33.22h-8.67v14.2c0,1.92.05,5.34.29,8.71l-12.61-22.92h-10.78v33.22h8.66v-13.72c0-1.92,0-4.86-.29-8.23l12.08,21.95h11.32Z"/>
  <path class="cls-6" d="m326.91,298.62v6.74h6.45c-1.21,3.66-3.42,5.3-6.79,5.3-4.09,0-7.7-2.84-7.7-11.22,0-7.17,3.52-10.64,7.75-10.64,3.52,0,5.68,1.69,6.41,5.25l.09.48h8.67l-.05-.48c-.67-6.55-5.54-11.6-15.02-11.6s-16.9,5.97-16.9,17.53,6.21,17.04,15.07,17.04c3.51,0,5.78-.53,7.65-2.11l1.45-3.66.82,5.1h6.74v-17.72h-14.64Z"/>
  <path class="cls-6" d="m374.66,289.86v-6.74h-30.24v6.74h10.79v26.48h8.67v-26.48h10.79Z"/>
  <path class="cls-6" d="m403.5,309.6h-16.81v-6.55h15.36v-6.74h-15.36v-6.45h16.32v-6.74h-24.98v33.22h25.47v-6.74Z"/>
  <path class="cls-6" d="m434.69,309.6h-16.47l16.28-19.79v-6.69h-25.66v6.74h15.07l-16.42,19.93v6.55h27.2v-6.74Z"/>
</svg>