<?xml version="1.0" encoding="UTF-8"?>
<svg xmlns="http://www.w3.org/2000/svg" xmlns:xlink="http://www.w3.org/1999/xlink" width="243px" height="60px" viewBox="0 0 243 60" version="1.1">
<defs>
<clipPath id="clip1">
  <path d="M 0.191406 0 L 59.964844 0 L 59.964844 60 L 0.191406 60 Z M 0.191406 0 "/>
</clipPath>
<clipPath id="clip2">
  <path d="M 19.640625 0 L 40.523438 0 C 51.261719 0 59.972656 8.738281 59.972656 19.519531 L 59.972656 40.488281 C 59.972656 51.265625 51.261719 60.003906 40.523438 60.003906 L 19.640625 60.003906 C 8.898438 60 0.191406 51.261719 0.191406 40.480469 L 0.191406 19.511719 C 0.191406 8.738281 8.898438 0 19.640625 0 "/>
</clipPath>
<clipPath id="clip3">
  <path d="M 27.421875 25.996094 L 59.964844 25.996094 L 59.964844 32.664062 L 27.421875 32.664062 Z M 27.421875 25.996094 "/>
</clipPath>
</defs>
<g id="surface1">
<g clip-path="url(#clip1)" clip-rule="nonzero">
<g clip-path="url(#clip2)" clip-rule="nonzero">
<path style=" stroke:none;fill-rule:nonzero;fill:rgb(0%,0%,0%);fill-opacity:1;" d="M 0.191406 0 L 59.964844 0 L 59.964844 60 L 0.191406 60 Z M 0.191406 0 "/>
</g>
</g>
<path style=" stroke:none;fill-rule:nonzero;fill:rgb(1.568627%,27.843137%,95.686275%);fill-opacity:1;" d="M 36.980469 26.621094 C 36.855469 26.382812 36.609375 26.238281 36.339844 26.238281 L 28.382812 26.238281 L 29.769531 12.472656 C 29.800781 12.136719 29.601562 11.820312 29.277344 11.710938 C 28.953125 11.601562 28.609375 11.730469 28.425781 12.003906 L 15.289062 32.394531 C 15.144531 32.621094 15.132812 32.902344 15.261719 33.144531 C 15.394531 33.382812 15.632812 33.523438 15.902344 33.523438 L 23.863281 33.523438 L 22.484375 47.289062 C 22.449219 47.628906 22.652344 47.941406 22.964844 48.050781 C 23.042969 48.085938 23.125 48.09375 23.203125 48.09375 C 23.449219 48.09375 23.683594 47.96875 23.816406 47.757812 L 36.957031 27.371094 C 37.101562 27.140625 37.109375 26.863281 36.980469 26.621094 Z M 36.980469 26.621094 "/>
<path style=" stroke:none;fill-rule:nonzero;fill:rgb(1.568627%,27.843137%,95.686275%);fill-opacity:1;" d="M 27.421875 25.996094 L 59.964844 25.996094 L 59.964844 32.664062 L 27.421875 32.664062 Z M 27.421875 25.996094 "/>
<g clip-path="url(#clip3)" clip-rule="nonzero">
<path style=" stroke:none;fill-rule:nonzero;fill:rgb(1.568627%,27.843137%,95.686275%);fill-opacity:1;" d="M 27.421875 25.996094 L 59.964844 25.996094 L 59.964844 32.664062 L 27.421875 32.664062 Z M 27.421875 25.996094 "/>
</g>
<path style=" stroke:none;fill-rule:nonzero;fill:rgb(0%,0%,0%);fill-opacity:1;" d="M 101.496094 38.144531 L 87.285156 38.144531 L 87.285156 32.585938 L 100.273438 32.585938 L 100.273438 26.867188 L 87.285156 26.867188 L 87.285156 21.394531 L 101.082031 21.394531 L 101.082031 15.671875 L 79.964844 15.671875 L 79.964844 43.863281 L 101.496094 43.863281 Z M 101.496094 38.144531 "/>
<path style=" stroke:none;fill-rule:nonzero;fill:rgb(0%,0%,0%);fill-opacity:1;" d="M 132.84375 43.859375 L 132.84375 15.667969 L 125.511719 15.667969 L 125.511719 27.71875 C 125.511719 29.34375 125.554688 32.25 125.753906 35.109375 L 115.09375 15.660156 L 105.980469 15.660156 L 105.980469 43.847656 L 113.300781 43.847656 L 113.300781 32.207031 C 113.300781 30.578125 113.300781 28.078125 113.054688 25.222656 L 123.273438 43.847656 L 132.84375 43.847656 Z M 132.84375 43.859375 "/>
<path style=" stroke:none;fill-rule:nonzero;fill:rgb(0%,0%,0%);fill-opacity:1;" d="M 151.679688 28.824219 L 151.679688 34.542969 L 157.132812 34.542969 C 156.109375 37.648438 154.242188 39.042969 151.390625 39.042969 C 147.933594 39.042969 144.882812 36.632812 144.882812 29.519531 C 144.882812 23.4375 147.855469 20.488281 151.433594 20.488281 C 154.410156 20.488281 156.238281 21.925781 156.855469 24.945312 L 156.929688 25.351562 L 164.261719 25.351562 L 164.21875 24.945312 C 163.652344 19.386719 159.535156 15.101562 151.519531 15.101562 C 143.503906 15.101562 137.230469 20.171875 137.230469 29.976562 C 137.230469 39.785156 142.484375 44.4375 149.976562 44.4375 C 152.941406 44.4375 154.863281 43.988281 156.445312 42.644531 L 157.671875 39.539062 L 158.367188 43.867188 L 164.066406 43.867188 L 164.066406 28.832031 L 151.6875 28.832031 L 151.6875 28.824219 Z M 151.679688 28.824219 "/>
<path style=" stroke:none;fill-rule:nonzero;fill:rgb(1.568627%,27.843137%,95.686275%);fill-opacity:1;" d="M 192.054688 21.394531 L 192.054688 15.671875 L 166.488281 15.671875 L 166.488281 21.394531 L 175.609375 21.394531 L 175.609375 43.863281 L 182.941406 43.863281 L 182.941406 21.394531 L 192.0625 21.394531 Z M 192.054688 21.394531 "/>
<path style=" stroke:none;fill-rule:nonzero;fill:rgb(1.568627%,27.843137%,95.686275%);fill-opacity:1;" d="M 216.4375 38.144531 L 202.226562 38.144531 L 202.226562 32.585938 L 215.214844 32.585938 L 215.214844 26.867188 L 202.226562 26.867188 L 202.226562 21.394531 L 216.023438 21.394531 L 216.023438 15.671875 L 194.90625 15.671875 L 194.90625 43.863281 L 216.4375 43.863281 Z M 216.4375 38.144531 "/>
<path style=" stroke:none;fill-rule:nonzero;fill:rgb(1.568627%,27.843137%,95.686275%);fill-opacity:1;" d="M 242.808594 38.144531 L 228.882812 38.144531 L 242.644531 21.347656 L 242.644531 15.671875 L 220.949219 15.671875 L 220.949219 21.394531 L 233.691406 21.394531 L 219.808594 38.300781 L 219.808594 43.859375 L 242.804688 43.859375 L 242.804688 38.136719 Z M 242.808594 38.144531 "/>
</g>
</svg>
