<?xml version="1.0" encoding="UTF-8"?>
<svg xmlns="http://www.w3.org/2000/svg" xmlns:xlink="http://www.w3.org/1999/xlink" width="12px" height="3px" viewBox="0 0 12 3" version="1.1">
<defs>
<clipPath id="clip1">
  <path d="M 0.0078125 0 L 2.960938 0 L 2.960938 3 L 0.0078125 3 Z M 0.0078125 0 "/>
</clipPath>
<clipPath id="clip2">
  <path d="M 0.96875 0 L 2 0 C 2.53125 0 2.960938 0.4375 2.960938 0.976562 L 2.960938 2.023438 C 2.960938 2.5625 2.53125 3 2 3 L 0.96875 3 C 0.441406 3 0.0078125 2.5625 0.0078125 2.023438 L 0.0078125 0.976562 C 0.0078125 0.4375 0.441406 0 0.96875 0 "/>
</clipPath>
<clipPath id="clip3">
  <path d="M 1.355469 1.300781 L 2.960938 1.300781 L 2.960938 1.632812 L 1.355469 1.632812 Z M 1.355469 1.300781 "/>
</clipPath>
</defs>
<g id="surface1">
<g clip-path="url(#clip1)" clip-rule="nonzero">
<g clip-path="url(#clip2)" clip-rule="nonzero">
<path style=" stroke:none;fill-rule:nonzero;fill:rgb(0%,0%,0%);fill-opacity:1;" d="M 0.0078125 0 L 2.960938 0 L 2.960938 3 L 0.0078125 3 Z M 0.0078125 0 "/>
</g>
</g>
<path style=" stroke:none;fill-rule:nonzero;fill:rgb(1.568627%,27.843137%,95.686275%);fill-opacity:1;" d="M 1.824219 1.332031 C 1.820312 1.320312 1.808594 1.3125 1.792969 1.3125 L 1.402344 1.3125 L 1.46875 0.625 C 1.472656 0.605469 1.460938 0.589844 1.445312 0.585938 C 1.429688 0.578125 1.414062 0.585938 1.402344 0.601562 L 0.753906 1.621094 C 0.746094 1.632812 0.746094 1.644531 0.753906 1.65625 C 0.761719 1.667969 0.773438 1.675781 0.785156 1.675781 L 1.179688 1.675781 L 1.109375 2.363281 C 1.109375 2.382812 1.117188 2.398438 1.132812 2.402344 C 1.136719 2.40625 1.140625 2.40625 1.144531 2.40625 C 1.15625 2.40625 1.167969 2.398438 1.175781 2.386719 L 1.824219 1.367188 C 1.832031 1.355469 1.832031 1.34375 1.824219 1.332031 Z M 1.824219 1.332031 "/>
<path style=" stroke:none;fill-rule:nonzero;fill:rgb(1.568627%,27.843137%,95.686275%);fill-opacity:1;" d="M 1.355469 1.300781 L 2.960938 1.300781 L 2.960938 1.632812 L 1.355469 1.632812 Z M 1.355469 1.300781 "/>
<g clip-path="url(#clip3)" clip-rule="nonzero">
<path style=" stroke:none;fill-rule:nonzero;fill:rgb(1.568627%,27.843137%,95.686275%);fill-opacity:1;" d="M 1.355469 1.300781 L 2.960938 1.300781 L 2.960938 1.632812 L 1.355469 1.632812 Z M 1.355469 1.300781 "/>
</g>
<path style=" stroke:none;fill-rule:nonzero;fill:rgb(0%,0%,0%);fill-opacity:1;" d="M 5.011719 1.90625 L 4.308594 1.90625 L 4.308594 1.628906 L 4.953125 1.628906 L 4.953125 1.34375 L 4.308594 1.34375 L 4.308594 1.070312 L 4.992188 1.070312 L 4.992188 0.785156 L 3.949219 0.785156 L 3.949219 2.191406 L 5.011719 2.191406 Z M 5.011719 1.90625 "/>
<path style=" stroke:none;fill-rule:nonzero;fill:rgb(0%,0%,0%);fill-opacity:1;" d="M 6.558594 2.191406 L 6.558594 0.785156 L 6.199219 0.785156 L 6.199219 1.386719 C 6.199219 1.46875 6.199219 1.613281 6.210938 1.753906 L 5.683594 0.78125 L 5.234375 0.78125 L 5.234375 2.191406 L 5.59375 2.191406 L 5.59375 1.609375 C 5.59375 1.527344 5.59375 1.402344 5.582031 1.261719 L 6.085938 2.191406 Z M 6.558594 2.191406 "/>
<path style=" stroke:none;fill-rule:nonzero;fill:rgb(0%,0%,0%);fill-opacity:1;" d="M 7.492188 1.441406 L 7.492188 1.726562 L 7.757812 1.726562 C 7.710938 1.882812 7.617188 1.953125 7.476562 1.953125 C 7.304688 1.953125 7.15625 1.832031 7.15625 1.476562 C 7.15625 1.171875 7.300781 1.023438 7.476562 1.023438 C 7.625 1.023438 7.714844 1.097656 7.746094 1.246094 L 7.75 1.265625 L 8.113281 1.265625 L 8.109375 1.246094 C 8.082031 0.96875 7.878906 0.753906 7.484375 0.753906 C 7.085938 0.753906 6.777344 1.007812 6.777344 1.5 C 6.777344 1.988281 7.035156 2.222656 7.40625 2.222656 C 7.550781 2.222656 7.648438 2.199219 7.726562 2.132812 L 7.785156 1.976562 L 7.820312 2.195312 L 8.101562 2.195312 L 8.101562 1.441406 Z M 7.492188 1.441406 "/>
<path style=" stroke:none;fill-rule:nonzero;fill:rgb(1.568627%,27.843137%,95.686275%);fill-opacity:1;" d="M 9.484375 1.070312 L 9.484375 0.785156 L 8.222656 0.785156 L 8.222656 1.070312 L 8.671875 1.070312 L 8.671875 2.191406 L 9.035156 2.191406 L 9.035156 1.070312 Z M 9.484375 1.070312 "/>
<path style=" stroke:none;fill-rule:nonzero;fill:rgb(1.568627%,27.843137%,95.686275%);fill-opacity:1;" d="M 10.6875 1.90625 L 9.988281 1.90625 L 9.988281 1.628906 L 10.628906 1.628906 L 10.628906 1.34375 L 9.988281 1.34375 L 9.988281 1.070312 L 10.667969 1.070312 L 10.667969 0.785156 L 9.625 0.785156 L 9.625 2.191406 L 10.6875 2.191406 Z M 10.6875 1.90625 "/>
<path style=" stroke:none;fill-rule:nonzero;fill:rgb(1.568627%,27.843137%,95.686275%);fill-opacity:1;" d="M 11.992188 1.90625 L 11.304688 1.90625 L 11.984375 1.066406 L 11.984375 0.785156 L 10.910156 0.785156 L 10.910156 1.070312 L 11.539062 1.070312 L 10.855469 1.914062 L 10.855469 2.191406 L 11.992188 2.191406 Z M 11.992188 1.90625 "/>
</g>
</svg>
