<?xml version="1.0" encoding="UTF-8"?>
<svg xmlns="http://www.w3.org/2000/svg" xmlns:xlink="http://www.w3.org/1999/xlink" width="180px" height="44px" viewBox="0 0 178 44" version="1.1">
<defs>
<clipPath id="clip1">
  <path d="M 0.140625 0 L 43.925781 0 L 43.925781 44 L 0.140625 44 Z M 0.140625 0 "/>
</clipPath>
<clipPath id="clip2">
  <path d="M 14.386719 0 L 29.683594 0 C 37.550781 0 43.929688 6.410156 43.929688 14.3125 L 43.929688 29.691406 C 43.929688 37.59375 37.550781 44.003906 29.683594 44.003906 L 14.386719 44.003906 C 6.519531 44 0.140625 37.589844 0.140625 29.6875 L 0.140625 14.308594 C 0.140625 6.410156 6.519531 0 14.386719 0 "/>
</clipPath>
<clipPath id="clip3">
  <path d="M 20.089844 19.066406 L 43.925781 19.066406 L 43.925781 23.953125 L 20.089844 23.953125 Z M 20.089844 19.066406 "/>
</clipPath>
</defs>
<g id="surface1">
<g clip-path="url(#clip1)" clip-rule="nonzero">
<g clip-path="url(#clip2)" clip-rule="nonzero">
<path style=" stroke:none;fill-rule:nonzero;fill:rgb(0%,0%,0%);fill-opacity:1;" d="M 0.140625 0 L 43.925781 0 L 43.925781 44 L 0.140625 44 Z M 0.140625 0 "/>
</g>
</g>
<path style=" stroke:none;fill-rule:nonzero;fill:rgb(1.568627%,27.843137%,95.686275%);fill-opacity:1;" d="M 27.089844 19.523438 C 26.996094 19.347656 26.816406 19.242188 26.617188 19.242188 L 20.789062 19.242188 L 21.804688 9.148438 C 21.832031 8.898438 21.683594 8.667969 21.445312 8.589844 C 21.210938 8.507812 20.957031 8.601562 20.820312 8.804688 L 11.199219 23.753906 C 11.09375 23.921875 11.085938 24.128906 11.179688 24.304688 C 11.277344 24.480469 11.453125 24.585938 11.648438 24.585938 L 17.480469 24.585938 L 16.46875 34.679688 C 16.445312 34.925781 16.59375 35.15625 16.824219 35.238281 C 16.878906 35.261719 16.9375 35.269531 16.996094 35.269531 C 17.175781 35.269531 17.347656 35.179688 17.445312 35.023438 L 27.070312 20.070312 C 27.175781 19.90625 27.183594 19.699219 27.089844 19.523438 Z M 27.089844 19.523438 "/>
<path style=" stroke:none;fill-rule:nonzero;fill:rgb(1.568627%,27.843137%,95.686275%);fill-opacity:1;" d="M 20.089844 19.066406 L 43.925781 19.066406 L 43.925781 23.953125 L 20.089844 23.953125 Z M 20.089844 19.066406 "/>
<g clip-path="url(#clip3)" clip-rule="nonzero">
<path style=" stroke:none;fill-rule:nonzero;fill:rgb(1.568627%,27.843137%,95.686275%);fill-opacity:1;" d="M 20.089844 19.066406 L 43.925781 19.066406 L 43.925781 23.953125 L 20.089844 23.953125 Z M 20.089844 19.066406 "/>
</g>
<path style=" stroke:none;fill-rule:nonzero;fill:rgb(0%,0%,0%);fill-opacity:1;" d="M 74.347656 27.972656 L 63.9375 27.972656 L 63.9375 23.898438 L 73.453125 23.898438 L 73.453125 19.703125 L 63.9375 19.703125 L 63.9375 15.6875 L 74.042969 15.6875 L 74.042969 11.492188 L 58.574219 11.492188 L 58.574219 32.167969 L 74.347656 32.167969 Z M 74.347656 27.972656 "/>
<path style=" stroke:none;fill-rule:nonzero;fill:rgb(0%,0%,0%);fill-opacity:1;" d="M 97.308594 32.164062 L 97.308594 11.488281 L 91.9375 11.488281 L 91.9375 20.324219 C 91.9375 21.519531 91.96875 23.648438 92.117188 25.746094 L 84.304688 11.484375 L 77.632812 11.484375 L 77.632812 32.15625 L 82.996094 32.15625 L 82.996094 23.617188 C 82.996094 22.421875 82.996094 20.589844 82.816406 18.496094 L 90.296875 32.15625 L 97.308594 32.15625 Z M 97.308594 32.164062 "/>
<path style=" stroke:none;fill-rule:nonzero;fill:rgb(0%,0%,0%);fill-opacity:1;" d="M 111.105469 21.136719 L 111.105469 25.332031 L 115.101562 25.332031 C 114.351562 27.609375 112.984375 28.628906 110.894531 28.628906 C 108.363281 28.628906 106.128906 26.863281 106.128906 21.648438 C 106.128906 17.1875 108.308594 15.027344 110.925781 15.027344 C 113.105469 15.027344 114.445312 16.078125 114.898438 18.292969 L 114.953125 18.589844 L 120.324219 18.589844 L 120.292969 18.292969 C 119.875 14.21875 116.863281 11.074219 110.992188 11.074219 C 105.117188 11.074219 100.523438 14.792969 100.523438 21.984375 C 100.523438 29.175781 104.371094 32.589844 109.859375 32.589844 C 112.03125 32.589844 113.4375 32.257812 114.597656 31.273438 L 115.496094 28.996094 L 116.003906 32.171875 L 120.179688 32.171875 L 120.179688 21.144531 L 111.113281 21.144531 L 111.113281 21.136719 Z M 111.105469 21.136719 "/>
<path style=" stroke:none;fill-rule:nonzero;fill:rgb(1.568627%,27.843137%,95.686275%);fill-opacity:1;" d="M 140.683594 15.6875 L 140.683594 11.492188 L 121.953125 11.492188 L 121.953125 15.6875 L 128.636719 15.6875 L 128.636719 32.167969 L 134.007812 32.167969 L 134.007812 15.6875 L 140.6875 15.6875 Z M 140.683594 15.6875 "/>
<path style=" stroke:none;fill-rule:nonzero;fill:rgb(1.568627%,27.843137%,95.686275%);fill-opacity:1;" d="M 158.542969 27.972656 L 148.132812 27.972656 L 148.132812 23.898438 L 157.648438 23.898438 L 157.648438 19.703125 L 148.132812 19.703125 L 148.132812 15.6875 L 158.238281 15.6875 L 158.238281 11.492188 L 142.769531 11.492188 L 142.769531 32.167969 L 158.542969 32.167969 Z M 158.542969 27.972656 "/>
<path style=" stroke:none;fill-rule:nonzero;fill:rgb(1.568627%,27.843137%,95.686275%);fill-opacity:1;" d="M 177.859375 27.972656 L 167.660156 27.972656 L 177.742188 15.65625 L 177.742188 11.492188 L 161.847656 11.492188 L 161.847656 15.6875 L 171.179688 15.6875 L 161.011719 28.089844 L 161.011719 32.164062 L 177.855469 32.164062 L 177.855469 27.96875 Z M 177.859375 27.972656 "/>
</g>
</svg>
