<?xml version="1.0" encoding="UTF-8"?>
<svg id="_Слой_2" data-name="Слой 2" xmlns="http://www.w3.org/2000/svg" viewBox="0 0 99.49 99.5">
  <defs>
    <style>
      .cls-1 {
        fill: #848484;
      }

      .cls-2 {
        fill: #a5a5a5;
      }

      .cls-3 {
        fill: #e0e0e0;
      }

      .cls-4 {
        fill: #828282;
      }

      .cls-5 {
        fill: #d3d3d3;
      }

      .cls-6 {
        fill: #999;
      }

      .cls-7 {
        fill: #bcbcbc;
      }

      .cls-8 {
        fill: #a8a8a8;
      }

      .cls-9 {
        fill: #686868;
      }
    </style>
  </defs>
  <g id="_Слой_1-2" data-name="Слой 1">
    <g>
      <path class="cls-4" d="m72.33,30.72v5.04c0-.57-.07-1.13-.21-1.68-.01-.05-.02-.1-.04-.15-1.6-5.99-10.99-10.58-22.34-10.58V5.9c.26,0,.52,0,.77.02,12.13.44,21.82,11.37,21.82,24.8Z"/>
      <path class="cls-1" d="m49.74,89.7v9.8c-9.3,0-18.01-2.56-25.46-7l10.35-9.05c2.76,3.7,8.49,6.25,15.11,6.25Z"/>
      <path class="cls-2" d="m75.21,92.5c-7.45,4.44-16.16,7-25.47,7v-9.8c6.63,0,12.36-2.55,15.12-6.25l10.35,9.05Z"/>
      <path class="cls-8" d="m49.74,0v5.9c-.26,0-.52,0-.77.02-12.12.44-21.81,11.37-21.81,24.8v8.06c0,12.13,4.51,22.72,11.22,28.42.76.65,1.55,1.23,2.36,1.75,1.09.69,2.22,1.25,3.38,1.69,0,2.86-1.23,5.59-3.39,7.47l-2.5,2.19-3.6,3.15-10.35,9.05C9.74,83.81,0,67.92,0,49.75,0,22.28,22.27,0,49.74,0Z"/>
      <path class="cls-3" d="m99.49,49.75c0,18.17-9.74,34.06-24.28,42.75l-10.35-9.05-3.6-3.15-2.5-2.19c-2.16-1.88-3.4-4.61-3.4-7.47,1.17-.44,2.3-1,3.38-1.69.82-.52,1.61-1.1,2.37-1.76,6.71-5.69,11.22-16.28,11.22-28.41v-8.06c0-13.43-9.69-24.36-21.82-24.8-.25-.02-.51-.02-.77-.02V0c27.48,0,49.75,22.28,49.75,49.75Z"/>
      <path class="cls-1" d="m49.74,68.59v3.07c-.19,0-.38-.01-.57-.02-2.47-.17-4.73-1.41-6.51-3.39-.78-.86-1.47-1.87-2.04-2.98-.25-.47-.47-.97-.67-1.49.35.43.72.83,1.11,1.2,1.18,1.14,2.53,2.05,4.02,2.67,1.45.61,3.02.94,4.66.94Z"/>
      <path class="cls-7" d="m72.33,35.76v3.02c0,12.13-4.51,22.72-11.22,28.41-.76.66-1.55,1.24-2.37,1.76-1.08.69-2.21,1.25-3.38,1.69-1.62.59-3.31.95-5.05,1,2.47-.17,4.73-1.41,6.52-3.39.78-.86,1.47-1.87,2.04-2.98.25-.47.47-.97.67-1.49-.35.43-.72.83-1.11,1.2-1.18,1.14-2.54,2.05-4.02,2.67-1.45.61-3.03.94-4.67.94V23.35c11.35,0,20.74,4.59,22.34,10.58.02.05.03.1.04.15.14.55.21,1.11.21,1.68Z"/>
      <path class="cls-9" d="m49.74,5.9v17.45c-11.34,0-20.73,4.59-22.33,10.58-.02.05-.03.1-.04.15-.14.55-.21,1.11-.21,1.68v-5.04c0-13.43,9.69-24.36,21.81-24.8.25-.02.51-.02.77-.02Z"/>
      <path class="cls-5" d="m64.86,83.45c-2.76,3.7-8.49,6.25-15.12,6.25v-4.62c4.76,0,8.97-1.89,11.52-4.78l3.6,3.15Z"/>
      <path class="cls-7" d="m49.74,85.08v4.62c-6.62,0-12.35-2.55-15.11-6.25l3.6-3.15c2.54,2.89,6.75,4.78,11.51,4.78Z"/>
      <path class="cls-6" d="m41.06,64.98c-.39-.37-.76-.77-1.11-1.2.2.52.42,1.02.67,1.49.57,1.11,1.26,2.12,2.04,2.98,1.78,1.98,4.04,3.22,6.51,3.39-1.74-.05-3.43-.41-5.05-1-1.16-.44-2.29-1-3.38-1.69-.81-.52-1.6-1.1-2.36-1.75-6.71-5.7-11.22-16.29-11.22-28.42v-3.02c0-.57.07-1.13.21-1.68.01-.05.02-.1.04-.15,1.6-5.99,10.99-10.58,22.33-10.58v45.24c-1.64,0-3.21-.33-4.66-.94-1.49-.62-2.84-1.53-4.02-2.67Z"/>
      <path class="cls-2" d="m59.54,63.78c-.2.52-.42,1.02-.67,1.49-.57,1.11-1.26,2.12-2.04,2.98-1.79,1.98-4.05,3.22-6.52,3.39-.19,0-.38.02-.57.02v-3.07c1.64,0,3.22-.33,4.67-.94,1.48-.62,2.84-1.53,4.02-2.67.39-.37.76-.77,1.11-1.2Z"/>
      <path class="cls-6" d="m49.74,71.66v13.42c-4.76,0-8.97-1.89-11.51-4.78l2.5-2.19c2.16-1.88,3.39-4.61,3.39-7.47,1.62.59,3.31.95,5.05,1,.19,0,.38.02.57.02Z"/>
      <path class="cls-7" d="m61.26,80.3c-2.55,2.89-6.76,4.78-11.52,4.78v-13.42c.19,0,.38-.01.57-.02,1.74-.05,3.43-.41,5.05-1,0,2.86,1.24,5.59,3.4,7.47l2.5,2.19Z"/>
    </g>
  </g>
</svg>