<?xml version="1.0" encoding="UTF-8"?>
<svg id="_Слой_2" data-name="Слой 2" xmlns="http://www.w3.org/2000/svg" viewBox="0 0 99.53 99.54">
  <defs>
    <style>
      .cls-1 {
        fill: #4c4c4c;
      }

      .cls-2 {
        fill: #848484;
      }

      .cls-3 {
        fill: #a5a5a5;
      }

      .cls-4 {
        fill: #e0e0e0;
      }

      .cls-5 {
        fill: #828282;
      }

      .cls-6 {
        fill: #d3d3d3;
      }

      .cls-7 {
        fill: #999;
      }

      .cls-8 {
        fill: #bcbcbc;
      }

      .cls-9 {
        fill: #a8a8a8;
      }

      .cls-10 {
        fill: #686868;
      }
    </style>
  </defs>
  <g id="_Слой_1-2" data-name="Слой 1">
    <g>
      <path class="cls-9" d="m28.22,22.08v22.58c0,1.91.17,3.76.5,5.55,1.64,9.12,7.26,16.46,14.55,19.23,0,2.73-1.25,5.31-3.39,7.01l-1.62,1.28-16.57,13.14C8.59,81.9,0,66.84,0,49.77,0,22.28,22.28,0,49.77,0v11.4h-10.87c-4.42,0-8.22,2.69-9.84,6.52-.54,1.28-.84,2.68-.84,4.16Z"/>
      <path class="cls-2" d="m49.77,93.58v5.96c-10.42,0-20.09-3.2-28.08-8.67l16.57-13.14c.28.22.56.42.85.62h.01c.84,2.23,4.89,12.23,10.65,15.23Z"/>
      <path class="cls-3" d="m77.84,90.87c-7.99,5.47-17.66,8.67-28.07,8.67v-5.96c.15.08.3.15.45.22,6.75-3.03,11.28-15.89,11.28-15.89l16.34,12.96Z"/>
      <path class="cls-6" d="m61.5,77.91s-4.53,12.86-11.28,15.89c-.15-.07-.3-.14-.45-.22v-11.83c4.23,0,8.18-1.47,11.5-4.02l.23.18Z"/>
      <path class="cls-7" d="m49.77,71.08v10.67c-3.88,0-7.51-1.24-10.65-3.4h-.01c-.29-.2-.57-.4-.85-.62l1.62-1.28c2.14-1.7,3.39-4.28,3.39-7.01,1.89.73,3.89,1.14,5.96,1.2l.07.15c.1.2.29.3.47.29Z"/>
      <path class="cls-8" d="m71.31,44.66c0,1.91-.17,3.76-.5,5.55-1.64,9.12-7.26,16.46-14.54,19.23-1.89.73-3.89,1.14-5.97,1.2l2.34-4.88c.16-.34-.09-.74-.47-.74h-2.4V27.7c5.21,0,9.98-1.16,13.7-3.08h.01c4.78,4.77,7.83,11.97,7.83,20.04Z"/>
      <path class="cls-7" d="m46.89,65.76l2.34,4.88c-2.07-.06-4.07-.47-5.96-1.2-7.29-2.77-12.91-10.11-14.55-19.23-.33-1.79-.5-3.64-.5-5.55,0-8.07,3.05-15.27,7.83-20.04h0c3.73,1.92,8.5,3.08,13.71,3.08v37.32h-2.41c-.38,0-.63.4-.47.74Z"/>
      <path class="cls-5" d="m75.91,15.11c0,2.8-1.02,5.6-3.02,7.79-1.02,1.11-1.58,2.56-1.58,4.07v17.69c0-8.07-3.05-15.27-7.83-20.04h-.01c-3.72,1.92-8.49,3.08-13.7,3.08V11.4h9.45c2.04,0,4.05-.53,5.82-1.54l3.69-2.09.68-.39c1.46-.83,3.31-.43,4.29.93,1.48,2.04,2.21,4.42,2.21,6.8Z"/>
      <path class="cls-10" d="m49.77,11.4v16.3c-5.21,0-9.98-1.16-13.71-3.08h0c-4.78,4.77-7.83,11.97-7.83,20.04v-22.58c0-1.48.3-2.88.84-4.16,1.62-3.83,5.42-6.52,9.84-6.52h10.87Z"/>
      <path class="cls-4" d="m99.53,49.77c0,17.07-8.59,32.13-21.69,41.1l-16.34-12.96-.23-.18-1.62-1.28c-2.14-1.7-3.38-4.28-3.38-7.01,7.28-2.77,12.9-10.11,14.54-19.23.33-1.79.5-3.64.5-5.55v-17.69c0-1.51.56-2.96,1.58-4.07,2-2.19,3.02-4.99,3.02-7.79,0-2.38-.73-4.76-2.21-6.8-.98-1.36-2.83-1.76-4.29-.93l-.68.39-3.69,2.09c-1.77,1.01-3.78,1.54-5.82,1.54h-9.45V0c.28,0,.56,0,.84.01,27.09.45,48.92,22.55,48.92,49.76Z"/>
      <path class="cls-8" d="m61.27,77.73c-3.32,2.55-7.27,4.02-11.5,4.02v-10.67c.19,0,.37-.1.46-.29l.07-.15c2.08-.06,4.08-.47,5.97-1.2,0,2.73,1.24,5.31,3.38,7.01l1.62,1.28Z"/>
      <path class="cls-8" d="m49.77,81.75v11.83c-5.76-3-9.81-13-10.65-15.23,3.14,2.16,6.77,3.4,10.65,3.4Z"/>
      <path class="cls-2" d="m52.64,65.76l-2.34,4.88-.07.15c-.09.19-.27.29-.46.29-.18.01-.37-.09-.47-.29l-.07-.15-2.34-4.88c-.16-.34.09-.74.47-.74h4.81c.38,0,.63.4.47.74Z"/>
      <path class="cls-1" d="m50.99,38.18c.81.37,1.08,3.18,2.53,5.57,1.45,2.39,2.6,3.01,7.63,2.89,5.19-.12,6.07-6.47,6.33-7.09.17-.41.69-.98,1.02-1.31.36-.36.27-.63.21-2.13-.02-.43-.32-.78-.74-.87-5.79-1.23-9.65-1.59-14.91-.13-1.44.4-2.05.42-3.29.41-1.24,0-1.85-.01-3.29-.41-5.32-1.47-9.2-1.08-14.91.13-.42.09-.72.45-.74.87-.06,1.48-.15,1.76.21,2.13.33.34.85.9,1.02,1.31.25.61,1.13,6.96,6.33,7.09,5.03.12,6.18-.51,7.63-2.89,1.45-2.39,1.72-5.2,2.53-5.57.52-.24,1.94-.24,2.46,0Zm14.82,2.12c-.51,3.52-2.1,4.8-3.01,5.16-.92.36-4.84.89-6.97-.72-2.12-1.61-2.8-4.96-2.82-6.82-.02-1.86,2.8-2.31,2.8-2.31,3.23-.65,6.48-.43,7.95.05,1.47.48,2.55,1.13,2.05,4.65Zm-30.05-4.65c1.47-.48,4.72-.7,7.95-.05,0,0,2.82.46,2.8,2.31-.02,1.86-.7,5.21-2.82,6.82-2.12,1.61-6.05,1.08-6.97.72-.92-.36-2.51-1.64-3.01-5.16-.51-3.52.58-4.17,2.05-4.65Z"/>
    </g>
  </g>
</svg>