<?xml version="1.0" encoding="UTF-8"?>
<svg id="_Слой_2" data-name="Слой 2" xmlns="http://www.w3.org/2000/svg" viewBox="0 0 99.53 99.54">
  <defs>
    <style>
      .cls-1 {
        fill: #848484;
      }

      .cls-2 {
        fill: #a5a5a5;
      }

      .cls-3 {
        fill: #e0e0e0;
      }

      .cls-4 {
        fill: #828282;
      }

      .cls-5 {
        fill: #999;
      }

      .cls-6 {
        fill: #bcbcbc;
      }

      .cls-7 {
        fill: #a8a8a8;
      }

      .cls-8 {
        fill: #686868;
      }
    </style>
  </defs>
  <g id="_Слой_1-2" data-name="Слой 1">
    <g>
      <path class="cls-2" d="m76.71,91.62c-7.76,5.01-17.01,7.92-26.94,7.92v-16.54c4.09,0,7.93-1.44,11.22-3.97l15.72,12.59Z"/>
      <path class="cls-1" d="m49.77,83v16.54c-9.93,0-19.18-2.91-26.95-7.92l15.72-12.6c3.3,2.53,7.13,3.98,11.23,3.98Z"/>
      <path class="cls-7" d="m49.77,0v1.39c-1.2,0-2.38.12-3.53.35h-.02c-1.55.31-3.04.83-4.45,1.51-2.96,1.44-4.83,4.45-4.83,7.74-2.13,1.09-4.11,2.46-5.88,4.04-5.71,5.1-9.31,12.51-9.31,20.75,0,.64.02,1.28.07,1.91.38,5.68,2.47,10.88,5.77,15.12.7.92,1.47,1.8,2.29,2.62,2.75,7.18,7.72,12.67,13.75,14.92,0,2.9-1.32,5.65-3.59,7.47l-1.5,1.2-15.72,12.6c-.38-.24-.76-.49-1.13-.75C8.59,81.9,0,66.84,0,49.77,0,29.49,12.13,12.04,29.52,4.29c3.29-1.47,6.77-2.59,10.4-3.31,3.18-.64,6.48-.98,9.85-.98Z"/>
      <path class="cls-5" d="m49.77,47.18v24.29c-2.13,0-4.19-.39-6.14-1.12-6.03-2.25-11-7.74-13.75-14.92-.68-1.78-1.23-3.67-1.62-5.63-.19-.98-.19-1.99,0-2.97.1-.49.2-.98.32-1.45,3.47,2.51,7.62,3.97,12.09,3.97,1.3,0,2.58-.12,3.81-.37,1.86-.35,3.63-.96,5.29-1.79Z"/>
      <path class="cls-5" d="m49.77,71.47v11.53c-4.1,0-7.93-1.45-11.23-3.98l1.5-1.2c2.27-1.82,3.59-4.57,3.59-7.47,1.95.73,4.01,1.12,6.14,1.12Z"/>
      <path class="cls-4" d="m77.78,35.78c0,3.84-.78,7.5-2.2,10.83-.94,2.24-2.17,4.32-3.64,6.21-.7.92-1.48,1.8-2.3,2.63.2-.53.39-1.06.57-1.6,1.17-3.57,1.19-7.46,0-11.02,0-.02-.01-.04-.02-.05-.61-1.91-1.39-3.7-2.29-5.37-1.21-2.23-2.65-4.23-4.29-5.93-.45-.47-.91-.91-1.38-1.33-.01.09-.03.17-.05.26-.47,2.33-1.24,4.54-2.28,6.57-2.29,4.48-5.85,8.08-10.14,10.21V1.39c4.84,0,9.3,1.93,12.83,5.16v4.44c1.03.52,2.01,1.11,2.96,1.75,1.02.7,2,1.47,2.92,2.29,5.71,5.1,9.3,12.51,9.3,20.75Z"/>
      <path class="cls-8" d="m49.77,1.39v45.79c-1.66.83-3.43,1.44-5.29,1.79-1.23.25-2.51.37-3.81.37-4.47,0-8.62-1.46-12.09-3.97-.11.48-.22.96-.32,1.45-.19.98-.2,1.99,0,2.97.39,1.96.94,3.85,1.62,5.63-.82-.82-1.59-1.7-2.29-2.62-3.3-4.24-5.39-9.44-5.77-15.12-.05-.63-.07-1.27-.07-1.91,0-8.24,3.6-15.65,9.31-20.75,1.77-1.58,3.75-2.95,5.88-4.04h0c0-3.29,1.87-6.3,4.83-7.74,1.41-.69,2.9-1.2,4.45-1.51h.02c1.15-.23,2.33-.35,3.53-.35Z"/>
      <path class="cls-3" d="m99.53,49.77c0,17.56-9.09,32.98-22.82,41.85h0s-15.72-12.59-15.72-12.59l-1.5-1.21c-2.26-1.82-3.58-4.57-3.58-7.47,6.02-2.25,10.98-7.73,13.73-14.9.82-.83,1.6-1.71,2.3-2.63,1.47-1.89,2.7-3.97,3.64-6.21,1.42-3.33,2.2-6.99,2.2-10.83,0-8.24-3.59-15.65-9.3-20.75-.92-.82-1.9-1.59-2.92-2.29-.95-.64-1.93-1.23-2.96-1.75h0c0-3.21-1.76-6.2-4.62-7.64-2.52-1.26-5.29-1.96-8.21-1.96V0c.28,0,.56,0,.84,0,7.57.12,14.73,1.94,21.12,5.09,14.54,7.16,25.07,21.21,27.34,37.9.3,2.21.46,4.47.46,6.77Z"/>
      <path class="cls-6" d="m60.99,79.03c-3.29,2.53-7.13,3.97-11.22,3.97v-11.53c2.13,0,4.19-.39,6.14-1.12,0,2.9,1.32,5.65,3.58,7.47l1.5,1.21Z"/>
      <path class="cls-6" d="m70.22,42.82c1.19,3.57,1.16,7.45,0,11.02-.18.54-.37,1.08-.57,1.6-2.75,7.17-7.71,12.65-13.73,14.9-1.95.73-4.01,1.12-6.14,1.12v-24.29c4.29-2.13,7.85-5.73,10.14-10.21,1.04-2.03,1.81-4.24,2.28-6.57.02-.09.04-.17.05-.26.47.42.93.86,1.38,1.33,1.64,1.7,3.08,3.7,4.29,5.93.9,1.67,1.68,3.46,2.29,5.37,0,.02.01.04.02.05Z"/>
    </g>
  </g>
</svg>