<?xml version="1.0" encoding="UTF-8"?>
<svg id="_Слой_2" data-name="Слой 2" xmlns="http://www.w3.org/2000/svg" viewBox="0 0 100 100">
  <defs>
    <style>
      .cls-1 {
        fill: #e0e0e0;
      }

      .cls-2 {
        fill: #828282;
      }

      .cls-3 {
        fill: #aaa;
      }

      .cls-4 {
        fill: #999;
      }

      .cls-5 {
        fill: #bcbcbc;
      }

      .cls-6 {
        fill: #a8a8a8;
      }

      .cls-7 {
        fill: #686868;
      }
    </style>
  </defs>
  <g id="_Слой_1-2" data-name="Слой 1">
    <g>
      <path class="cls-6" d="m50,41.6v28.8c-2.03,0-4-.38-5.89-1.1-5.19-1.98-9.73-6.52-12.95-12.69-.01-.01-.02-.02-.02-.03-2.53-4.81-4.27-10.61-4.93-16.95,3.88,2.63,8.58,4.17,13.64,4.17,3.63,0,7.07-.79,10.15-2.2Z"/>
      <path class="cls-5" d="m73.73,40.11c-.7,6.17-2.42,11.79-4.89,16.49h0c-3.24,6.18-7.76,10.72-12.96,12.7-1.88.72-3.85,1.1-5.88,1.1v-28.8c8-3.67,13.61-11.53,13.92-20.72h.02v.13c0,7.83,3.85,14.78,9.79,19.1Z"/>
      <path class="cls-2" d="m76.78,33.83v58.19l-11.62-10.64-3.47-3.18-3.17-2.9c-1.68-1.54-2.64-3.72-2.64-6,5.2-1.98,9.72-6.52,12.96-12.69h0c2.47-4.71,4.19-10.33,4.89-16.5-5.94-4.32-9.79-11.27-9.79-19.1v-.13h-.02c-.31,9.19-5.92,17.05-13.92,20.72V1.8c2.15,0,4.24.3,6.25.88,4.07,1.16,7.77,3.43,10.89,6.53.59.59,1.15,1.2,1.7,1.85h0c4.9,5.82,7.94,13.87,7.94,22.77Z"/>
      <path class="cls-6" d="m50,70.4v13.05c-.61,0-1-.08-1-.08-8.68-1.28-10.7-5.17-10.7-5.17l3.17-2.9c1.68-1.54,2.64-3.72,2.64-6,1.89.72,3.86,1.1,5.89,1.1Z"/>
      <path class="cls-4" d="m50,83.45v16.55c-9.86,0-19.05-2.85-26.79-7.78v-.2l11.62-10.64,3.47-3.18s2.02,3.89,10.7,5.17c0,0,.39.09,1,.08Z"/>
      <path class="cls-5" d="m61.69,78.2s-2.02,3.89-10.7,5.17c-.37.06-.7.08-.99.08v-13.05c2.03,0,4-.38,5.88-1.1,0,2.28.96,4.46,2.64,6l3.17,2.9Z"/>
      <path class="cls-3" d="m76.78,92.02v.2c-7.74,4.93-16.93,7.78-26.78,7.78v-16.55c.29,0,.62-.02.99-.08,8.68-1.28,10.7-5.17,10.7-5.17l3.47,3.18,11.62,10.64Z"/>
      <path class="cls-6" d="m50,0v1.8c-7.35,0-14.01,3.53-18.84,9.26-.01.01-.02.02-.02.03-4.9,5.8-7.93,13.85-7.93,22.74v58.39C9.26,83.35,0,67.76,0,50c0-14.98,6.59-28.43,17.03-37.59h.01C23.24,6.97,30.79,3.03,39.13,1.19h.01c3.49-.78,7.13-1.19,10.86-1.19Z"/>
      <path class="cls-1" d="m100,50c0,17.76-9.26,33.35-23.22,42.22v-58.39c0-8.9-3.04-16.95-7.94-22.76h0c-.55-.66-1.11-1.27-1.7-1.86-3.12-3.1-6.82-5.37-10.89-6.53-2.01-.58-4.1-.88-6.25-.88V0c.96,0,1.91.03,2.86.09h.01c2.73.14,5.39.52,7.98,1.1h0c3.44.75,6.74,1.87,9.87,3.31,14.93,6.8,25.93,20.75,28.62,37.47.43,2.61.65,5.3.65,8.03Z"/>
      <path class="cls-7" d="m39.85,43.8c-5.06,0-9.76-1.54-13.64-4.17.66,6.34,2.4,12.14,4.93,16.95,0,.01.01.02.02.03,3.22,6.17,7.76,10.71,12.95,12.69,0,2.28-.96,4.46-2.64,6l-3.17,2.9-3.47,3.18-11.62,10.64v-58.19c0-8.89,3.03-16.94,7.93-22.74,0-.01.01-.02.02-.03,4.83-5.73,11.49-9.26,18.84-9.26v39.8c-3.08,1.41-6.52,2.2-10.15,2.2Z"/>
    </g>
  </g>
</svg>